<svg xmlns="http://www.w3.org/2000/svg" width="32" height="32" shape-rendering="crispEdges" id="black-owl-head">
  <rect width="1" height="1" x="3" y="1"></rect>
  <rect width="1" height="1" x="4" y="1"></rect>
  <rect width="1" height="1" x="27" y="1"></rect>
  <rect width="1" height="1" x="28" y="1"></rect>
  <rect width="1" height="1" x="2" y="2"></rect>
  <rect width="1" height="1" x="3" y="2" fill="#8B8B8B"></rect>
  <rect width="1" height="1" x="4" y="2"></rect>
  <rect width="1" height="1" x="27" y="2"></rect>
  <rect width="1" height="1" x="28" y="2" fill="#8B8B8B"></rect>
  <rect width="1" height="1" x="29" y="2"></rect>
  <rect width="1" height="1" x="2" y="3"></rect>
  <rect width="1" height="1" x="3" y="3" fill="#666"></rect>
  <rect width="1" height="1" x="4" y="3"></rect>
  <rect width="1" height="1" x="27" y="3"></rect>
  <rect width="1" height="1" x="28" y="3" fill="#666"></rect>
  <rect width="1" height="1" x="29" y="3"></rect>
  <rect width="1" height="1" x="1" y="4"></rect>
  <rect width="1" height="1" x="2" y="4" fill="#4F4F4F"></rect>
  <rect width="1" height="1" x="3" y="4" fill="#666"></rect>
  <rect width="1" height="1" x="4" y="4" fill="#666"></rect>
  <rect width="1" height="1" x="5" y="4"></rect>
  <rect width="1" height="1" x="6" y="4"></rect>
  <rect width="1" height="1" x="13" y="4"></rect>
  <rect width="1" height="1" x="14" y="4"></rect>
  <rect width="1" height="1" x="15" y="4"></rect>
  <rect width="1" height="1" x="16" y="4"></rect>
  <rect width="1" height="1" x="17" y="4"></rect>
  <rect width="1" height="1" x="18" y="4"></rect>
  <rect width="1" height="1" x="25" y="4"></rect>
  <rect width="1" height="1" x="26" y="4"></rect>
  <rect width="1" height="1" x="27" y="4" fill="#666"></rect>
  <rect width="1" height="1" x="28" y="4" fill="#666"></rect>
  <rect width="1" height="1" x="29" y="4" fill="#4F4F4F"></rect>
  <rect width="1" height="1" x="30" y="4"></rect>
  <rect width="1" height="1" x="1" y="5"></rect>
  <rect width="1" height="1" x="2" y="5" fill="#4F4F4F"></rect>
  <rect width="1" height="1" x="3" y="5" fill="#4F4F4F"></rect>
  <rect width="1" height="1" x="4" y="5" fill="#4F4F4F"></rect>
  <rect width="1" height="1" x="5" y="5" fill="#8B8B8B"></rect>
  <rect width="1" height="1" x="6" y="5" fill="#8B8B8B"></rect>
  <rect width="1" height="1" x="7" y="5"></rect>
  <rect width="1" height="1" x="8" y="5"></rect>
  <rect width="1" height="1" x="10" y="5"></rect>
  <rect width="1" height="1" x="11" y="5"></rect>
  <rect width="1" height="1" x="12" y="5"></rect>
  <rect width="1" height="1" x="13" y="5" fill="#8B8B8B"></rect>
  <rect width="1" height="1" x="14" y="5" fill="#666"></rect>
  <rect width="1" height="1" x="15" y="5" fill="#666"></rect>
  <rect width="1" height="1" x="16" y="5" fill="#666"></rect>
  <rect width="1" height="1" x="17" y="5" fill="#666"></rect>
  <rect width="1" height="1" x="18" y="5" fill="#8B8B8B"></rect>
  <rect width="1" height="1" x="19" y="5"></rect>
  <rect width="1" height="1" x="20" y="5"></rect>
  <rect width="1" height="1" x="21" y="5"></rect>
  <rect width="1" height="1" x="23" y="5"></rect>
  <rect width="1" height="1" x="24" y="5"></rect>
  <rect width="1" height="1" x="25" y="5" fill="#8B8B8B"></rect>
  <rect width="1" height="1" x="26" y="5" fill="#8B8B8B"></rect>
  <rect width="1" height="1" x="27" y="5" fill="#4F4F4F"></rect>
  <rect width="1" height="1" x="28" y="5" fill="#4F4F4F"></rect>
  <rect width="1" height="1" x="29" y="5" fill="#4F4F4F"></rect>
  <rect width="1" height="1" x="30" y="5"></rect>
  <rect width="1" height="1" x="1" y="6"></rect>
  <rect width="1" height="1" x="2" y="6" fill="#3A3A3A"></rect>
  <rect width="1" height="1" x="3" y="6" fill="#3A3A3A"></rect>
  <rect width="1" height="1" x="4" y="6" fill="#3A3A3A"></rect>
  <rect width="1" height="1" x="5" y="6" fill="#666"></rect>
  <rect width="1" height="1" x="6" y="6" fill="#666"></rect>
  <rect width="1" height="1" x="7" y="6" fill="#8B8B8B"></rect>
  <rect width="1" height="1" x="8" y="6" fill="#8B8B8B"></rect>
  <rect width="1" height="1" x="9" y="6"></rect>
  <rect width="1" height="1" x="10" y="6" fill="#8B8B8B"></rect>
  <rect width="1" height="1" x="11" y="6" fill="#666"></rect>
  <rect width="1" height="1" x="12" y="6" fill="#666"></rect>
  <rect width="1" height="1" x="13" y="6" fill="#666"></rect>
  <rect width="1" height="1" x="14" y="6" fill="#8B8B8B"></rect>
  <rect width="1" height="1" x="15" y="6" fill="#8B8B8B"></rect>
  <rect width="1" height="1" x="16" y="6" fill="#8B8B8B"></rect>
  <rect width="1" height="1" x="17" y="6" fill="#8B8B8B"></rect>
  <rect width="1" height="1" x="18" y="6" fill="#666"></rect>
  <rect width="1" height="1" x="19" y="6" fill="#666"></rect>
  <rect width="1" height="1" x="20" y="6" fill="#666"></rect>
  <rect width="1" height="1" x="21" y="6" fill="#8B8B8B"></rect>
  <rect width="1" height="1" x="22" y="6"></rect>
  <rect width="1" height="1" x="23" y="6" fill="#8B8B8B"></rect>
  <rect width="1" height="1" x="24" y="6" fill="#8B8B8B"></rect>
  <rect width="1" height="1" x="25" y="6" fill="#666"></rect>
  <rect width="1" height="1" x="26" y="6" fill="#666"></rect>
  <rect width="1" height="1" x="27" y="6" fill="#3A3A3A"></rect>
  <rect width="1" height="1" x="28" y="6" fill="#3A3A3A"></rect>
  <rect width="1" height="1" x="29" y="6" fill="#3A3A3A"></rect>
  <rect width="1" height="1" x="30" y="6"></rect>
  <rect width="1" height="1" y="7"></rect>
  <rect width="1" height="1" x="1" y="7" fill="#343333"></rect>
  <rect width="1" height="1" x="2" y="7" fill="#D0D0D0"></rect>
  <rect width="1" height="1" x="3" y="7" fill="#D0D0D0"></rect>
  <rect width="1" height="1" x="4" y="7" fill="#D0D0D0"></rect>
  <rect width="1" height="1" x="5" y="7" fill="#4F4F4F"></rect>
  <rect width="1" height="1" x="6" y="7" fill="#666"></rect>
  <rect width="1" height="1" x="7" y="7" fill="#666"></rect>
  <rect width="1" height="1" x="8" y="7" fill="#666"></rect>
  <rect width="1" height="1" x="9" y="7" fill="#666"></rect>
  <rect width="1" height="1" x="10" y="7" fill="#666"></rect>
  <rect width="1" height="1" x="11" y="7" fill="#666"></rect>
  <rect width="1" height="1" x="12" y="7" fill="#8B8B8B"></rect>
  <rect width="1" height="1" x="13" y="7" fill="#8B8B8B"></rect>
  <rect width="1" height="1" x="14" y="7" fill="#8B8B8B"></rect>
  <rect width="1" height="1" x="15" y="7" fill="#8B8B8B"></rect>
  <rect width="1" height="1" x="16" y="7" fill="#8B8B8B"></rect>
  <rect width="1" height="1" x="17" y="7" fill="#8B8B8B"></rect>
  <rect width="1" height="1" x="18" y="7" fill="#8B8B8B"></rect>
  <rect width="1" height="1" x="19" y="7" fill="#8B8B8B"></rect>
  <rect width="1" height="1" x="20" y="7" fill="#666"></rect>
  <rect width="1" height="1" x="21" y="7" fill="#666"></rect>
  <rect width="1" height="1" x="22" y="7" fill="#666"></rect>
  <rect width="1" height="1" x="23" y="7" fill="#666"></rect>
  <rect width="1" height="1" x="24" y="7" fill="#666"></rect>
  <rect width="1" height="1" x="25" y="7" fill="#666"></rect>
  <rect width="1" height="1" x="26" y="7" fill="#4F4F4F"></rect>
  <rect width="1" height="1" x="27" y="7" fill="#D0D0D0"></rect>
  <rect width="1" height="1" x="28" y="7" fill="#D0D0D0"></rect>
  <rect width="1" height="1" x="29" y="7" fill="#D0D0D0"></rect>
  <rect width="1" height="1" x="30" y="7" fill="#231F20"></rect>
  <rect width="1" height="1" x="31" y="7"></rect>
  <rect width="1" height="1" y="8"></rect>
  <rect width="1" height="1" x="1" y="8" fill="#878787"></rect>
  <rect width="1" height="1" x="2" y="8" fill="#3A3A3A"></rect>
  <rect width="1" height="1" x="3" y="8" fill="#878787"></rect>
  <rect width="1" height="1" x="4" y="8" fill="#878787"></rect>
  <rect width="1" height="1" x="5" y="8" fill="#3A3A3A"></rect>
  <rect width="1" height="1" x="6" y="8" fill="#3A3A3A"></rect>
  <rect width="1" height="1" x="7" y="8" fill="#4F4F4F"></rect>
  <rect width="1" height="1" x="8" y="8" fill="#666"></rect>
  <rect width="1" height="1" x="9" y="8" fill="#666"></rect>
  <rect width="1" height="1" x="10" y="8" fill="#666"></rect>
  <rect width="1" height="1" x="11" y="8" fill="#666"></rect>
  <rect width="1" height="1" x="12" y="8" fill="#666"></rect>
  <rect width="1" height="1" x="13" y="8" fill="#8B8B8B"></rect>
  <rect width="1" height="1" x="14" y="8" fill="#8B8B8B"></rect>
  <rect width="1" height="1" x="15" y="8" fill="#8B8B8B"></rect>
  <rect width="1" height="1" x="16" y="8" fill="#8B8B8B"></rect>
  <rect width="1" height="1" x="17" y="8" fill="#8B8B8B"></rect>
  <rect width="1" height="1" x="18" y="8" fill="#8B8B8B"></rect>
  <rect width="1" height="1" x="19" y="8" fill="#666"></rect>
  <rect width="1" height="1" x="20" y="8" fill="#666"></rect>
  <rect width="1" height="1" x="21" y="8" fill="#666"></rect>
  <rect width="1" height="1" x="22" y="8" fill="#666"></rect>
  <rect width="1" height="1" x="23" y="8" fill="#666"></rect>
  <rect width="1" height="1" x="24" y="8" fill="#4F4F4F"></rect>
  <rect width="1" height="1" x="25" y="8" fill="#3A3A3A"></rect>
  <rect width="1" height="1" x="26" y="8" fill="#3A3A3A"></rect>
  <rect width="1" height="1" x="27" y="8" fill="#878787"></rect>
  <rect width="1" height="1" x="28" y="8" fill="#878787"></rect>
  <rect width="1" height="1" x="29" y="8" fill="#3A3A3A"></rect>
  <rect width="1" height="1" x="30" y="8" fill="#878787"></rect>
  <rect width="1" height="1" x="31" y="8"></rect>
  <rect width="1" height="1" y="9"></rect>
  <rect width="1" height="1" x="1" y="9" fill="#878787"></rect>
  <rect width="1" height="1" x="2" y="9" fill="#878787"></rect>
  <rect width="1" height="1" x="3" y="9" fill="#3A3A3A"></rect>
  <rect width="1" height="1" x="4" y="9" fill="#767676"></rect>
  <rect width="1" height="1" x="5" y="9" fill="#878787"></rect>
  <rect width="1" height="1" x="6" y="9" fill="#D0D0D0"></rect>
  <rect width="1" height="1" x="7" y="9" fill="#3A3A3A"></rect>
  <rect width="1" height="1" x="8" y="9" fill="#4F4F4F"></rect>
  <rect width="1" height="1" x="9" y="9" fill="#666"></rect>
  <rect width="1" height="1" x="10" y="9" fill="#666"></rect>
  <rect width="1" height="1" x="11" y="9" fill="#666"></rect>
  <rect width="1" height="1" x="12" y="9" fill="#666"></rect>
  <rect width="1" height="1" x="13" y="9" fill="#666"></rect>
  <rect width="1" height="1" x="14" y="9" fill="#666"></rect>
  <rect width="1" height="1" x="15" y="9" fill="#8B8B8B"></rect>
  <rect width="1" height="1" x="16" y="9" fill="#8B8B8B"></rect>
  <rect width="1" height="1" x="17" y="9" fill="#666"></rect>
  <rect width="1" height="1" x="18" y="9" fill="#666"></rect>
  <rect width="1" height="1" x="19" y="9" fill="#666"></rect>
  <rect width="1" height="1" x="20" y="9" fill="#666"></rect>
  <rect width="1" height="1" x="21" y="9" fill="#666"></rect>
  <rect width="1" height="1" x="22" y="9" fill="#666"></rect>
  <rect width="1" height="1" x="23" y="9" fill="#4F4F4F"></rect>
  <rect width="1" height="1" x="24" y="9" fill="#3A3A3A"></rect>
  <rect width="1" height="1" x="25" y="9" fill="#D0D0D0"></rect>
  <rect width="1" height="1" x="26" y="9" fill="#878787"></rect>
  <rect width="1" height="1" x="27" y="9" fill="#767676"></rect>
  <rect width="1" height="1" x="28" y="9" fill="#3A3A3A"></rect>
  <rect width="1" height="1" x="29" y="9" fill="#878787"></rect>
  <rect width="1" height="1" x="30" y="9" fill="#878787"></rect>
  <rect width="1" height="1" x="31" y="9"></rect>
  <rect width="1" height="1" y="10"></rect>
  <rect width="1" height="1" x="1" y="10" fill="#767676"></rect>
  <rect width="1" height="1" x="2" y="10" fill="#878787"></rect>
  <rect width="1" height="1" x="3" y="10" fill="#878787"></rect>
  <rect width="1" height="1" x="4" y="10" fill="#3A3A3A"></rect>
  <rect width="1" height="1" x="5" y="10" fill="#767676"></rect>
  <rect width="1" height="1" x="6" y="10" fill="#878787"></rect>
  <rect width="1" height="1" x="7" y="10" fill="#D0D0D0"></rect>
  <rect width="1" height="1" x="8" y="10" fill="#3A3A3A"></rect>
  <rect width="1" height="1" x="9" y="10" fill="#3A3A3A"></rect>
  <rect width="1" height="1" x="10" y="10" fill="#666"></rect>
  <rect width="1" height="1" x="11" y="10" fill="#666"></rect>
  <rect width="1" height="1" x="12" y="10" fill="#666"></rect>
  <rect width="1" height="1" x="13" y="10" fill="#666"></rect>
  <rect width="1" height="1" x="14" y="10" fill="#666"></rect>
  <rect width="1" height="1" x="15" y="10" fill="#666"></rect>
  <rect width="1" height="1" x="16" y="10" fill="#666"></rect>
  <rect width="1" height="1" x="17" y="10" fill="#666"></rect>
  <rect width="1" height="1" x="18" y="10" fill="#666"></rect>
  <rect width="1" height="1" x="19" y="10" fill="#666"></rect>
  <rect width="1" height="1" x="20" y="10" fill="#666"></rect>
  <rect width="1" height="1" x="21" y="10" fill="#666"></rect>
  <rect width="1" height="1" x="22" y="10" fill="#3A3A3A"></rect>
  <rect width="1" height="1" x="23" y="10" fill="#3A3A3A"></rect>
  <rect width="1" height="1" x="24" y="10" fill="#D0D0D0"></rect>
  <rect width="1" height="1" x="25" y="10" fill="#878787"></rect>
  <rect width="1" height="1" x="26" y="10" fill="#767676"></rect>
  <rect width="1" height="1" x="27" y="10" fill="#3A3A3A"></rect>
  <rect width="1" height="1" x="28" y="10" fill="#878787"></rect>
  <rect width="1" height="1" x="29" y="10" fill="#878787"></rect>
  <rect width="1" height="1" x="30" y="10" fill="#767676"></rect>
  <rect width="1" height="1" x="31" y="10"></rect>
  <rect width="1" height="1" x="1" y="11"></rect>
  <rect width="1" height="1" x="2" y="11" fill="#767676"></rect>
  <rect width="1" height="1" x="3" y="11" fill="#767676"></rect>
  <rect width="1" height="1" x="4" y="11" fill="#767676"></rect>
  <rect width="1" height="1" x="5" y="11" fill="#767676"></rect>
  <rect width="1" height="1" x="6" y="11" fill="#767676"></rect>
  <rect width="1" height="1" x="7" y="11" fill="#878787"></rect>
  <rect width="1" height="1" x="8" y="11" fill="#878787"></rect>
  <rect width="1" height="1" x="9" y="11" fill="#878787"></rect>
  <rect width="1" height="1" x="10" y="11" fill="#3A3A3A"></rect>
  <rect width="1" height="1" x="11" y="11" fill="#666"></rect>
  <rect width="1" height="1" x="12" y="11" fill="#666"></rect>
  <rect width="1" height="1" x="13" y="11" fill="#666"></rect>
  <rect width="1" height="1" x="14" y="11" fill="#666"></rect>
  <rect width="1" height="1" x="15" y="11" fill="#666"></rect>
  <rect width="1" height="1" x="16" y="11" fill="#666"></rect>
  <rect width="1" height="1" x="17" y="11" fill="#666"></rect>
  <rect width="1" height="1" x="18" y="11" fill="#666"></rect>
  <rect width="1" height="1" x="19" y="11" fill="#666"></rect>
  <rect width="1" height="1" x="20" y="11" fill="#666"></rect>
  <rect width="1" height="1" x="21" y="11" fill="#3A3A3A"></rect>
  <rect width="1" height="1" x="22" y="11" fill="#878787"></rect>
  <rect width="1" height="1" x="23" y="11" fill="#878787"></rect>
  <rect width="1" height="1" x="24" y="11" fill="#878787"></rect>
  <rect width="1" height="1" x="25" y="11" fill="#767676"></rect>
  <rect width="1" height="1" x="26" y="11" fill="#767676"></rect>
  <rect width="1" height="1" x="27" y="11" fill="#767676"></rect>
  <rect width="1" height="1" x="28" y="11" fill="#767676"></rect>
  <rect width="1" height="1" x="29" y="11" fill="#767676"></rect>
  <rect width="1" height="1" x="30" y="11"></rect>
  <rect width="1" height="1" x="2" y="12"></rect>
  <rect width="1" height="1" x="3" y="12" fill="#292626"></rect>
  <rect width="1" height="1" x="4" y="12" fill="#3A3A3A"></rect>
  <rect width="1" height="1" x="5" y="12" fill="#3A3A3A"></rect>
  <rect width="1" height="1" x="6" y="12" fill="#767676"></rect>
  <rect width="1" height="1" x="7" y="12" fill="#767676"></rect>
  <rect width="1" height="1" x="8" y="12" fill="#767676"></rect>
  <rect width="1" height="1" x="9" y="12" fill="#767676"></rect>
  <rect width="1" height="1" x="10" y="12" fill="#767676"></rect>
  <rect width="1" height="1" x="11" y="12" fill="#3A3A3A"></rect>
  <rect width="1" height="1" x="12" y="12" fill="#666"></rect>
  <rect width="1" height="1" x="13" y="12" fill="#666"></rect>
  <rect width="1" height="1" x="14" y="12" fill="#666"></rect>
  <rect width="1" height="1" x="15" y="12" fill="#666"></rect>
  <rect width="1" height="1" x="16" y="12" fill="#666"></rect>
  <rect width="1" height="1" x="17" y="12" fill="#666"></rect>
  <rect width="1" height="1" x="18" y="12" fill="#666"></rect>
  <rect width="1" height="1" x="19" y="12" fill="#666"></rect>
  <rect width="1" height="1" x="20" y="12" fill="#3A3A3A"></rect>
  <rect width="1" height="1" x="21" y="12" fill="#767676"></rect>
  <rect width="1" height="1" x="22" y="12" fill="#767676"></rect>
  <rect width="1" height="1" x="23" y="12" fill="#767676"></rect>
  <rect width="1" height="1" x="24" y="12" fill="#767676"></rect>
  <rect width="1" height="1" x="25" y="12" fill="#767676"></rect>
  <rect width="1" height="1" x="26" y="12" fill="#3A3A3A"></rect>
  <rect width="1" height="1" x="27" y="12" fill="#3A3A3A"></rect>
  <rect width="1" height="1" x="28" y="12" fill="#231F20"></rect>
  <rect width="1" height="1" x="29" y="12"></rect>
  <rect width="1" height="1" x="2" y="13"></rect>
  <rect width="1" height="1" x="3" y="13" fill="#4F4F4F"></rect>
  <rect width="1" height="1" x="4" y="13" fill="#4F4F4F"></rect>
  <rect width="1" height="1" x="5" y="13" fill="#4F4F4F"></rect>
  <rect width="1" height="1" x="6" y="13" fill="#3A3A3A"></rect>
  <rect width="1" height="1" x="7" y="13" fill="#3A3A3A"></rect>
  <rect width="1" height="1" x="8" y="13" fill="#3A3A3A"></rect>
  <rect width="1" height="1" x="9" y="13" fill="#3A3A3A"></rect>
  <rect width="1" height="1" x="10" y="13" fill="#3A3A3A"></rect>
  <rect width="1" height="1" x="11" y="13" fill="#767676"></rect>
  <rect width="1" height="1" x="12" y="13" fill="#3A3A3A"></rect>
  <rect width="1" height="1" x="13" y="13" fill="#5A5A5A"></rect>
  <rect width="1" height="1" x="14" y="13" fill="#5A5A5A"></rect>
  <rect width="1" height="1" x="15" y="13" fill="#666"></rect>
  <rect width="1" height="1" x="16" y="13" fill="#666"></rect>
  <rect width="1" height="1" x="17" y="13" fill="#5A5A5A"></rect>
  <rect width="1" height="1" x="18" y="13" fill="#5A5A5A"></rect>
  <rect width="1" height="1" x="19" y="13" fill="#3A3A3A"></rect>
  <rect width="1" height="1" x="20" y="13" fill="#767676"></rect>
  <rect width="1" height="1" x="21" y="13" fill="#3A3A3A"></rect>
  <rect width="1" height="1" x="22" y="13" fill="#3A3A3A"></rect>
  <rect width="1" height="1" x="23" y="13" fill="#3A3A3A"></rect>
  <rect width="1" height="1" x="24" y="13" fill="#3A3A3A"></rect>
  <rect width="1" height="1" x="25" y="13" fill="#3A3A3A"></rect>
  <rect width="1" height="1" x="26" y="13" fill="#4F4F4F"></rect>
  <rect width="1" height="1" x="27" y="13" fill="#4F4F4F"></rect>
  <rect width="1" height="1" x="28" y="13" fill="#4F4F4F"></rect>
  <rect width="1" height="1" x="29" y="13"></rect>
  <rect width="1" height="1" x="2" y="14"></rect>
  <rect width="1" height="1" x="3" y="14" fill="#4F4F4F"></rect>
  <rect width="1" height="1" x="4" y="14" fill="#656565"></rect>
  <rect width="1" height="1" x="5" y="14" fill="#565656"></rect>
  <rect width="1" height="1" x="6" y="14" fill="#484848"></rect>
  <rect width="1" height="1" x="7" y="14" fill="#2F2D2D"></rect>
  <rect width="1" height="1" x="8" y="14" fill="#D5C233"></rect>
  <rect width="1" height="1" x="9" y="14" fill="#D5C233"></rect>
  <rect width="1" height="1" x="10" y="14" fill="#D5C233"></rect>
  <rect width="1" height="1" x="11" y="14" fill="#3A3A3A"></rect>
  <rect width="1" height="1" x="12" y="14" fill="#3A3A3A"></rect>
  <rect width="1" height="1" x="13" y="14" fill="#565656"></rect>
  <rect width="1" height="1" x="14" y="14" fill="#565656"></rect>
  <rect width="1" height="1" x="15" y="14" fill="#5F5F5F"></rect>
  <rect width="1" height="1" x="16" y="14" fill="#5E5E5E"></rect>
  <rect width="1" height="1" x="17" y="14" fill="#565656"></rect>
  <rect width="1" height="1" x="18" y="14" fill="#565656"></rect>
  <rect width="1" height="1" x="19" y="14" fill="#3A3A3A"></rect>
  <rect width="1" height="1" x="20" y="14" fill="#3A3A3A"></rect>
  <rect width="1" height="1" x="21" y="14" fill="#D5C233"></rect>
  <rect width="1" height="1" x="22" y="14" fill="#D5C233"></rect>
  <rect width="1" height="1" x="23" y="14" fill="#D5C233"></rect>
  <rect width="1" height="1" x="24" y="14" fill="#343233"></rect>
  <rect width="1" height="1" x="25" y="14" fill="#484848"></rect>
  <rect width="1" height="1" x="26" y="14" fill="#565656"></rect>
  <rect width="1" height="1" x="27" y="14" fill="#666"></rect>
  <rect width="1" height="1" x="28" y="14" fill="#4F4F4F"></rect>
  <rect width="1" height="1" x="29" y="14"></rect>
  <rect width="1" height="1" x="2" y="15"></rect>
  <rect width="1" height="1" x="3" y="15" fill="#4F4F4F"></rect>
  <rect width="1" height="1" x="4" y="15" fill="#656565"></rect>
  <rect width="1" height="1" x="5" y="15" fill="#565656"></rect>
  <rect width="1" height="1" x="6" y="15" fill="#231F20"></rect>
  <rect width="1" height="1" x="7" y="15" fill="#D5C233"></rect>
  <rect width="1" height="1" x="8" y="15" fill="#4F4F4F"></rect>
  <rect width="1" height="1" x="9" y="15" fill="#333"></rect>
  <rect width="1" height="1" x="10" y="15" fill="#EDEDED"></rect>
  <rect width="1" height="1" x="11" y="15" fill="#EDEDED"></rect>
  <rect width="1" height="1" x="12" y="15" fill="#D5C233"></rect>
  <rect width="1" height="1" x="13" y="15" fill="#231F20"></rect>
  <rect width="1" height="1" x="14" y="15" fill="#565656"></rect>
  <rect width="1" height="1" x="15" y="15" fill="#565656"></rect>
  <rect width="1" height="1" x="16" y="15" fill="#565656"></rect>
  <rect width="1" height="1" x="17" y="15" fill="#565656"></rect>
  <rect width="1" height="1" x="18" y="15" fill="#231F20"></rect>
  <rect width="1" height="1" x="19" y="15" fill="#D5C233"></rect>
  <rect width="1" height="1" x="20" y="15" fill="#EDEDED"></rect>
  <rect width="1" height="1" x="21" y="15" fill="#EDEDED"></rect>
  <rect width="1" height="1" x="22" y="15" fill="#333"></rect>
  <rect width="1" height="1" x="23" y="15" fill="#4F4F4F"></rect>
  <rect width="1" height="1" x="24" y="15" fill="#D5C233"></rect>
  <rect width="1" height="1" x="25" y="15" fill="#231F20"></rect>
  <rect width="1" height="1" x="26" y="15" fill="#565656"></rect>
  <rect width="1" height="1" x="27" y="15" fill="#666"></rect>
  <rect width="1" height="1" x="28" y="15" fill="#4F4F4F"></rect>
  <rect width="1" height="1" x="29" y="15"></rect>
  <rect width="1" height="1" x="1" y="16"></rect>
  <rect width="1" height="1" x="2" y="16" fill="#4F4F4F"></rect>
  <rect width="1" height="1" x="3" y="16" fill="#666"></rect>
  <rect width="1" height="1" x="4" y="16" fill="#666"></rect>
  <rect width="1" height="1" x="5" y="16" fill="#565656"></rect>
  <rect width="1" height="1" x="6" y="16" fill="#231F20"></rect>
  <rect width="1" height="1" x="7" y="16" fill="#D5C233"></rect>
  <rect width="1" height="1" x="8" y="16" fill="#4F4F4F"></rect>
  <rect width="1" height="1" x="9" y="16" fill="#333"></rect>
  <rect width="1" height="1" x="10" y="16" fill="#333"></rect>
  <rect width="1" height="1" x="11" y="16" fill="#333"></rect>
  <rect width="1" height="1" x="12" y="16" fill="#D5C233"></rect>
  <rect width="1" height="1" x="13" y="16" fill="#231F20"></rect>
  <rect width="1" height="1" x="14" y="16" fill="#565656"></rect>
  <rect width="1" height="1" x="15" y="16" fill="#565656"></rect>
  <rect width="1" height="1" x="16" y="16" fill="#565656"></rect>
  <rect width="1" height="1" x="17" y="16" fill="#565656"></rect>
  <rect width="1" height="1" x="18" y="16" fill="#231F20"></rect>
  <rect width="1" height="1" x="19" y="16" fill="#D5C233"></rect>
  <rect width="1" height="1" x="20" y="16" fill="#333"></rect>
  <rect width="1" height="1" x="21" y="16" fill="#333"></rect>
  <rect width="1" height="1" x="22" y="16" fill="#333"></rect>
  <rect width="1" height="1" x="23" y="16" fill="#4F4F4F"></rect>
  <rect width="1" height="1" x="24" y="16" fill="#D5C233"></rect>
  <rect width="1" height="1" x="25" y="16" fill="#231F20"></rect>
  <rect width="1" height="1" x="26" y="16" fill="#565656"></rect>
  <rect width="1" height="1" x="27" y="16" fill="#666"></rect>
  <rect width="1" height="1" x="28" y="16" fill="#666"></rect>
  <rect width="1" height="1" x="29" y="16" fill="#4F4F4F"></rect>
  <rect width="1" height="1" x="30" y="16"></rect>
  <rect width="1" height="1" y="17"></rect>
  <rect width="1" height="1" x="1" y="17" fill="#454545"></rect>
  <rect width="1" height="1" x="2" y="17" fill="#666"></rect>
  <rect width="1" height="1" x="3" y="17" fill="#666"></rect>
  <rect width="1" height="1" x="4" y="17" fill="#666"></rect>
  <rect width="1" height="1" x="5" y="17" fill="#565656"></rect>
  <rect width="1" height="1" x="6" y="17" fill="#231F20"></rect>
  <rect width="1" height="1" x="7" y="17" fill="#D5C233"></rect>
  <rect width="1" height="1" x="8" y="17" fill="#4F4F4F"></rect>
  <rect width="1" height="1" x="9" y="17" fill="#333"></rect>
  <rect width="1" height="1" x="10" y="17" fill="#333"></rect>
  <rect width="1" height="1" x="11" y="17" fill="#333"></rect>
  <rect width="1" height="1" x="12" y="17" fill="#D5C233"></rect>
  <rect width="1" height="1" x="13" y="17" fill="#231F20"></rect>
  <rect width="1" height="1" x="14" y="17" fill="#565656"></rect>
  <rect width="1" height="1" x="15" y="17" fill="#565656"></rect>
  <rect width="1" height="1" x="16" y="17" fill="#565656"></rect>
  <rect width="1" height="1" x="17" y="17" fill="#565656"></rect>
  <rect width="1" height="1" x="18" y="17" fill="#231F20"></rect>
  <rect width="1" height="1" x="19" y="17" fill="#D5C233"></rect>
  <rect width="1" height="1" x="20" y="17" fill="#333"></rect>
  <rect width="1" height="1" x="21" y="17" fill="#333"></rect>
  <rect width="1" height="1" x="22" y="17" fill="#333"></rect>
  <rect width="1" height="1" x="23" y="17" fill="#4F4F4F"></rect>
  <rect width="1" height="1" x="24" y="17" fill="#D5C233"></rect>
  <rect width="1" height="1" x="25" y="17" fill="#231F20"></rect>
  <rect width="1" height="1" x="26" y="17" fill="#565656"></rect>
  <rect width="1" height="1" x="27" y="17" fill="#666"></rect>
  <rect width="1" height="1" x="28" y="17" fill="#666"></rect>
  <rect width="1" height="1" x="29" y="17" fill="#666"></rect>
  <rect width="1" height="1" x="30" y="17" fill="#454545"></rect>
  <rect width="1" height="1" x="31" y="17"></rect>
  <rect width="1" height="1" y="18"></rect>
  <rect width="1" height="1" x="1" y="18" fill="#454545"></rect>
  <rect width="1" height="1" x="2" y="18" fill="#4F4F4F"></rect>
  <rect width="1" height="1" x="3" y="18" fill="#666"></rect>
  <rect width="1" height="1" x="4" y="18" fill="#666"></rect>
  <rect width="1" height="1" x="5" y="18" fill="#565656"></rect>
  <rect width="1" height="1" x="6" y="18" fill="#231F20"></rect>
  <rect width="1" height="1" x="7" y="18" fill="#D5C233"></rect>
  <rect width="1" height="1" x="8" y="18" fill="#4F4F4F"></rect>
  <rect width="1" height="1" x="9" y="18" fill="#4F4F4F"></rect>
  <rect width="1" height="1" x="10" y="18" fill="#4F4F4F"></rect>
  <rect width="1" height="1" x="11" y="18" fill="#4F4F4F"></rect>
  <rect width="1" height="1" x="12" y="18" fill="#D5C233"></rect>
  <rect width="1" height="1" x="13" y="18" fill="#231F20"></rect>
  <rect width="1" height="1" x="14" y="18" fill="#565656"></rect>
  <rect width="1" height="1" x="15" y="18" fill="#C7AB22"></rect>
  <rect width="1" height="1" x="16" y="18" fill="#C7AB22"></rect>
  <rect width="1" height="1" x="17" y="18" fill="#565656"></rect>
  <rect width="1" height="1" x="18" y="18" fill="#231F20"></rect>
  <rect width="1" height="1" x="19" y="18" fill="#D5C233"></rect>
  <rect width="1" height="1" x="20" y="18" fill="#4F4F4F"></rect>
  <rect width="1" height="1" x="21" y="18" fill="#4F4F4F"></rect>
  <rect width="1" height="1" x="22" y="18" fill="#4F4F4F"></rect>
  <rect width="1" height="1" x="23" y="18" fill="#4F4F4F"></rect>
  <rect width="1" height="1" x="24" y="18" fill="#D5C233"></rect>
  <rect width="1" height="1" x="25" y="18" fill="#231F20"></rect>
  <rect width="1" height="1" x="26" y="18" fill="#565656"></rect>
  <rect width="1" height="1" x="27" y="18" fill="#666"></rect>
  <rect width="1" height="1" x="28" y="18" fill="#666"></rect>
  <rect width="1" height="1" x="29" y="18" fill="#4F4F4F"></rect>
  <rect width="1" height="1" x="30" y="18" fill="#454545"></rect>
  <rect width="1" height="1" x="31" y="18"></rect>
  <rect width="1" height="1" y="19"></rect>
  <rect width="1" height="1" x="1" y="19" fill="#454545"></rect>
  <rect width="1" height="1" x="2" y="19" fill="#4F4F4F"></rect>
  <rect width="1" height="1" x="3" y="19" fill="#666"></rect>
  <rect width="1" height="1" x="4" y="19" fill="#646464"></rect>
  <rect width="1" height="1" x="5" y="19" fill="#565656"></rect>
  <rect width="1" height="1" x="6" y="19" fill="#565656"></rect>
  <rect width="1" height="1" x="7" y="19" fill="#231F20"></rect>
  <rect width="1" height="1" x="8" y="19" fill="#D5C233"></rect>
  <rect width="1" height="1" x="9" y="19" fill="#D5C233"></rect>
  <rect width="1" height="1" x="10" y="19" fill="#D5C233"></rect>
  <rect width="1" height="1" x="11" y="19" fill="#D5C233"></rect>
  <rect width="1" height="1" x="12" y="19" fill="#231F20"></rect>
  <rect width="1" height="1" x="13" y="19" fill="#585858"></rect>
  <rect width="1" height="1" x="14" y="19" fill="#C7AB22"></rect>
  <rect width="1" height="1" x="15" y="19" fill="#FFED86"></rect>
  <rect width="1" height="1" x="16" y="19" fill="#FFED86"></rect>
  <rect width="1" height="1" x="17" y="19" fill="#C7AB22"></rect>
  <rect width="1" height="1" x="18" y="19" fill="#585858"></rect>
  <rect width="1" height="1" x="19" y="19" fill="#231F20"></rect>
  <rect width="1" height="1" x="20" y="19" fill="#D5C233"></rect>
  <rect width="1" height="1" x="21" y="19" fill="#D5C233"></rect>
  <rect width="1" height="1" x="22" y="19" fill="#D5C233"></rect>
  <rect width="1" height="1" x="23" y="19" fill="#D5C233"></rect>
  <rect width="1" height="1" x="24" y="19" fill="#231F20"></rect>
  <rect width="1" height="1" x="25" y="19" fill="#565656"></rect>
  <rect width="1" height="1" x="26" y="19" fill="#565656"></rect>
  <rect width="1" height="1" x="27" y="19" fill="#666"></rect>
  <rect width="1" height="1" x="28" y="19" fill="#666"></rect>
  <rect width="1" height="1" x="29" y="19" fill="#4F4F4F"></rect>
  <rect width="1" height="1" x="30" y="19" fill="#454545"></rect>
  <rect width="1" height="1" x="31" y="19"></rect>
  <rect width="1" height="1" y="20"></rect>
  <rect width="1" height="1" x="1" y="20" fill="#454545"></rect>
  <rect width="1" height="1" x="2" y="20" fill="#4F4F4F"></rect>
  <rect width="1" height="1" x="3" y="20" fill="#636363"></rect>
  <rect width="1" height="1" x="4" y="20" fill="#656565"></rect>
  <rect width="1" height="1" x="5" y="20" fill="#565656"></rect>
  <rect width="1" height="1" x="6" y="20" fill="#565656"></rect>
  <rect width="1" height="1" x="7" y="20" fill="#565656"></rect>
  <rect width="1" height="1" x="8" y="20" fill="#231F20"></rect>
  <rect width="1" height="1" x="9" y="20" fill="#231F20"></rect>
  <rect width="1" height="1" x="10" y="20" fill="#231F20"></rect>
  <rect width="1" height="1" x="11" y="20" fill="#231F20"></rect>
  <rect width="1" height="1" x="12" y="20" fill="#565656"></rect>
  <rect width="1" height="1" x="13" y="20" fill="#585858"></rect>
  <rect width="1" height="1" x="14" y="20" fill="#C7AB22"></rect>
  <rect width="1" height="1" x="15" y="20" fill="#FFED86"></rect>
  <rect width="1" height="1" x="16" y="20" fill="#FFED86"></rect>
  <rect width="1" height="1" x="17" y="20" fill="#C1A417"></rect>
  <rect width="1" height="1" x="18" y="20" fill="#585858"></rect>
  <rect width="1" height="1" x="19" y="20" fill="#565656"></rect>
  <rect width="1" height="1" x="20" y="20" fill="#231F20"></rect>
  <rect width="1" height="1" x="21" y="20" fill="#231F20"></rect>
  <rect width="1" height="1" x="22" y="20" fill="#231F20"></rect>
  <rect width="1" height="1" x="23" y="20" fill="#231F20"></rect>
  <rect width="1" height="1" x="24" y="20" fill="#565656"></rect>
  <rect width="1" height="1" x="25" y="20" fill="#565656"></rect>
  <rect width="1" height="1" x="26" y="20" fill="#5A5A5A"></rect>
  <rect width="1" height="1" x="27" y="20" fill="#666"></rect>
  <rect width="1" height="1" x="28" y="20" fill="#626262"></rect>
  <rect width="1" height="1" x="29" y="20" fill="#4F4F4F"></rect>
  <rect width="1" height="1" x="30" y="20" fill="#454545"></rect>
  <rect width="1" height="1" x="31" y="20"></rect>
  <rect width="1" height="1" x="1" y="21"></rect>
  <rect width="1" height="1" x="2" y="21" fill="#454545"></rect>
  <rect width="1" height="1" x="3" y="21" fill="#4F4F4F"></rect>
  <rect width="1" height="1" x="4" y="21" fill="#666"></rect>
  <rect width="1" height="1" x="5" y="21" fill="#565656"></rect>
  <rect width="1" height="1" x="6" y="21" fill="#565656"></rect>
  <rect width="1" height="1" x="7" y="21" fill="#565656"></rect>
  <rect width="1" height="1" x="8" y="21" fill="#565656"></rect>
  <rect width="1" height="1" x="9" y="21" fill="#565656"></rect>
  <rect width="1" height="1" x="10" y="21" fill="#565656"></rect>
  <rect width="1" height="1" x="11" y="21" fill="#565656"></rect>
  <rect width="1" height="1" x="12" y="21" fill="#585858"></rect>
  <rect width="1" height="1" x="13" y="21" fill="#666"></rect>
  <rect width="1" height="1" x="14" y="21" fill="#C1A417"></rect>
  <rect width="1" height="1" x="15" y="21" fill="#F7DA2F"></rect>
  <rect width="1" height="1" x="16" y="21" fill="#F7DA2F"></rect>
  <rect width="1" height="1" x="17" y="21" fill="#C1A417"></rect>
  <rect width="1" height="1" x="18" y="21" fill="#666"></rect>
  <rect width="1" height="1" x="19" y="21" fill="#565656"></rect>
  <rect width="1" height="1" x="20" y="21" fill="#565656"></rect>
  <rect width="1" height="1" x="21" y="21" fill="#565656"></rect>
  <rect width="1" height="1" x="22" y="21" fill="#565656"></rect>
  <rect width="1" height="1" x="23" y="21" fill="#565656"></rect>
  <rect width="1" height="1" x="24" y="21" fill="#565656"></rect>
  <rect width="1" height="1" x="25" y="21" fill="#565656"></rect>
  <rect width="1" height="1" x="26" y="21" fill="#666"></rect>
  <rect width="1" height="1" x="27" y="21" fill="#666"></rect>
  <rect width="1" height="1" x="28" y="21" fill="#4F4F4F"></rect>
  <rect width="1" height="1" x="29" y="21" fill="#454545"></rect>
  <rect width="1" height="1" x="30" y="21"></rect>
  <rect width="1" height="1" x="1" y="22"></rect>
  <rect width="1" height="1" x="2" y="22" fill="#454545"></rect>
  <rect width="1" height="1" x="3" y="22" fill="#4F4F4F"></rect>
  <rect width="1" height="1" x="4" y="22" fill="#666"></rect>
  <rect width="1" height="1" x="5" y="22" fill="#666"></rect>
  <rect width="1" height="1" x="6" y="22" fill="#565656"></rect>
  <rect width="1" height="1" x="7" y="22" fill="#565656"></rect>
  <rect width="1" height="1" x="8" y="22" fill="#565656"></rect>
  <rect width="1" height="1" x="9" y="22" fill="#565656"></rect>
  <rect width="1" height="1" x="10" y="22" fill="#565656"></rect>
  <rect width="1" height="1" x="11" y="22" fill="#626262"></rect>
  <rect width="1" height="1" x="12" y="22" fill="#666"></rect>
  <rect width="1" height="1" x="13" y="22" fill="#666"></rect>
  <rect width="1" height="1" x="14" y="22" fill="#585858"></rect>
  <rect width="1" height="1" x="15" y="22" fill="#C7AB22"></rect>
  <rect width="1" height="1" x="16" y="22" fill="#C7AB22"></rect>
  <rect width="1" height="1" x="17" y="22" fill="#585858"></rect>
  <rect width="1" height="1" x="18" y="22" fill="#666"></rect>
  <rect width="1" height="1" x="19" y="22" fill="#666"></rect>
  <rect width="1" height="1" x="20" y="22" fill="#565656"></rect>
  <rect width="1" height="1" x="21" y="22" fill="#575757"></rect>
  <rect width="1" height="1" x="22" y="22" fill="#585858"></rect>
  <rect width="1" height="1" x="23" y="22" fill="#575757"></rect>
  <rect width="1" height="1" x="24" y="22" fill="#565656"></rect>
  <rect width="1" height="1" x="25" y="22" fill="#666"></rect>
  <rect width="1" height="1" x="26" y="22" fill="#666"></rect>
  <rect width="1" height="1" x="27" y="22" fill="#666"></rect>
  <rect width="1" height="1" x="28" y="22" fill="#4F4F4F"></rect>
  <rect width="1" height="1" x="29" y="22" fill="#454545"></rect>
  <rect width="1" height="1" x="30" y="22"></rect>
  <rect width="1" height="1" x="2" y="23"></rect>
  <rect width="1" height="1" x="3" y="23" fill="#454545"></rect>
  <rect width="1" height="1" x="4" y="23" fill="#565656"></rect>
  <rect width="1" height="1" x="5" y="23" fill="#666"></rect>
  <rect width="1" height="1" x="6" y="23" fill="#666"></rect>
  <rect width="1" height="1" x="7" y="23" fill="#666"></rect>
  <rect width="1" height="1" x="8" y="23" fill="#666"></rect>
  <rect width="1" height="1" x="9" y="23" fill="#666"></rect>
  <rect width="1" height="1" x="10" y="23" fill="#666"></rect>
  <rect width="1" height="1" x="11" y="23" fill="#666"></rect>
  <rect width="1" height="1" x="12" y="23" fill="#666"></rect>
  <rect width="1" height="1" x="13" y="23" fill="#666"></rect>
  <rect width="1" height="1" x="14" y="23" fill="#666"></rect>
  <rect width="1" height="1" x="15" y="23" fill="#585858"></rect>
  <rect width="1" height="1" x="16" y="23" fill="#585858"></rect>
  <rect width="1" height="1" x="17" y="23" fill="#666"></rect>
  <rect width="1" height="1" x="18" y="23" fill="#666"></rect>
  <rect width="1" height="1" x="19" y="23" fill="#666"></rect>
  <rect width="1" height="1" x="20" y="23" fill="#666"></rect>
  <rect width="1" height="1" x="21" y="23" fill="#666"></rect>
  <rect width="1" height="1" x="22" y="23" fill="#666"></rect>
  <rect width="1" height="1" x="23" y="23" fill="#666"></rect>
  <rect width="1" height="1" x="24" y="23" fill="#666"></rect>
  <rect width="1" height="1" x="25" y="23" fill="#666"></rect>
  <rect width="1" height="1" x="26" y="23" fill="#666"></rect>
  <rect width="1" height="1" x="27" y="23" fill="#565656"></rect>
  <rect width="1" height="1" x="28" y="23" fill="#454545"></rect>
  <rect width="1" height="1" x="29" y="23"></rect>
  <rect width="1" height="1" x="2" y="24"></rect>
  <rect width="1" height="1" x="3" y="24" fill="#454545"></rect>
  <rect width="1" height="1" x="4" y="24" fill="#565656"></rect>
  <rect width="1" height="1" x="5" y="24" fill="#565656"></rect>
  <rect width="1" height="1" x="6" y="24" fill="#666"></rect>
  <rect width="1" height="1" x="7" y="24" fill="#666"></rect>
  <rect width="1" height="1" x="8" y="24" fill="#666"></rect>
  <rect width="1" height="1" x="9" y="24" fill="#666"></rect>
  <rect width="1" height="1" x="10" y="24" fill="#666"></rect>
  <rect width="1" height="1" x="11" y="24" fill="#666"></rect>
  <rect width="1" height="1" x="12" y="24" fill="#666"></rect>
  <rect width="1" height="1" x="13" y="24" fill="#666"></rect>
  <rect width="1" height="1" x="14" y="24" fill="#666"></rect>
  <rect width="1" height="1" x="15" y="24" fill="#666"></rect>
  <rect width="1" height="1" x="16" y="24" fill="#666"></rect>
  <rect width="1" height="1" x="17" y="24" fill="#666"></rect>
  <rect width="1" height="1" x="18" y="24" fill="#666"></rect>
  <rect width="1" height="1" x="19" y="24" fill="#666"></rect>
  <rect width="1" height="1" x="20" y="24" fill="#666"></rect>
  <rect width="1" height="1" x="21" y="24" fill="#666"></rect>
  <rect width="1" height="1" x="22" y="24" fill="#666"></rect>
  <rect width="1" height="1" x="23" y="24" fill="#666"></rect>
  <rect width="1" height="1" x="24" y="24" fill="#666"></rect>
  <rect width="1" height="1" x="25" y="24" fill="#666"></rect>
  <rect width="1" height="1" x="26" y="24" fill="#565656"></rect>
  <rect width="1" height="1" x="27" y="24" fill="#565656"></rect>
  <rect width="1" height="1" x="28" y="24" fill="#454545"></rect>
  <rect width="1" height="1" x="29" y="24"></rect>
  <rect width="1" height="1" x="3" y="25"></rect>
  <rect width="1" height="1" x="4" y="25" fill="#454545"></rect>
  <rect width="1" height="1" x="5" y="25" fill="#565656"></rect>
  <rect width="1" height="1" x="6" y="25" fill="#565656"></rect>
  <rect width="1" height="1" x="7" y="25" fill="#565656"></rect>
  <rect width="1" height="1" x="8" y="25" fill="#565656"></rect>
  <rect width="1" height="1" x="9" y="25" fill="#666"></rect>
  <rect width="1" height="1" x="10" y="25" fill="#666"></rect>
  <rect width="1" height="1" x="11" y="25" fill="#666"></rect>
  <rect width="1" height="1" x="12" y="25" fill="#666"></rect>
  <rect width="1" height="1" x="13" y="25" fill="#666"></rect>
  <rect width="1" height="1" x="14" y="25" fill="#666"></rect>
  <rect width="1" height="1" x="15" y="25" fill="#666"></rect>
  <rect width="1" height="1" x="16" y="25" fill="#666"></rect>
  <rect width="1" height="1" x="17" y="25" fill="#666"></rect>
  <rect width="1" height="1" x="18" y="25" fill="#666"></rect>
  <rect width="1" height="1" x="19" y="25" fill="#666"></rect>
  <rect width="1" height="1" x="20" y="25" fill="#666"></rect>
  <rect width="1" height="1" x="21" y="25" fill="#666"></rect>
  <rect width="1" height="1" x="22" y="25" fill="#5E5E5E"></rect>
  <rect width="1" height="1" x="23" y="25" fill="#565656"></rect>
  <rect width="1" height="1" x="24" y="25" fill="#565656"></rect>
  <rect width="1" height="1" x="25" y="25" fill="#565656"></rect>
  <rect width="1" height="1" x="26" y="25" fill="#565656"></rect>
  <rect width="1" height="1" x="27" y="25" fill="#454545"></rect>
  <rect width="1" height="1" x="28" y="25"></rect>
  <rect width="1" height="1" x="4" y="26"></rect>
  <rect width="1" height="1" x="5" y="26"></rect>
  <rect width="1" height="1" x="6" y="26" fill="#454545"></rect>
  <rect width="1" height="1" x="7" y="26" fill="#565656"></rect>
  <rect width="1" height="1" x="8" y="26" fill="#565656"></rect>
  <rect width="1" height="1" x="9" y="26" fill="#565656"></rect>
  <rect width="1" height="1" x="10" y="26" fill="#565656"></rect>
  <rect width="1" height="1" x="11" y="26" fill="#565656"></rect>
  <rect width="1" height="1" x="12" y="26" fill="#565656"></rect>
  <rect width="1" height="1" x="13" y="26" fill="#5A5A5A"></rect>
  <rect width="1" height="1" x="14" y="26" fill="#666"></rect>
  <rect width="1" height="1" x="15" y="26" fill="#666"></rect>
  <rect width="1" height="1" x="16" y="26" fill="#666"></rect>
  <rect width="1" height="1" x="17" y="26" fill="#666"></rect>
  <rect width="1" height="1" x="18" y="26" fill="#565656"></rect>
  <rect width="1" height="1" x="19" y="26" fill="#565656"></rect>
  <rect width="1" height="1" x="20" y="26" fill="#565656"></rect>
  <rect width="1" height="1" x="21" y="26" fill="#565656"></rect>
  <rect width="1" height="1" x="22" y="26" fill="#565656"></rect>
  <rect width="1" height="1" x="23" y="26" fill="#565656"></rect>
  <rect width="1" height="1" x="24" y="26" fill="#565656"></rect>
  <rect width="1" height="1" x="25" y="26" fill="#454545"></rect>
  <rect width="1" height="1" x="26" y="26"></rect>
  <rect width="1" height="1" x="27" y="26"></rect>
  <rect width="1" height="1" x="6" y="27"></rect>
  <rect width="1" height="1" x="7" y="27"></rect>
  <rect width="1" height="1" x="8" y="27"></rect>
  <rect width="1" height="1" x="9" y="27" fill="#454545"></rect>
  <rect width="1" height="1" x="10" y="27" fill="#565656"></rect>
  <rect width="1" height="1" x="11" y="27" fill="#565656"></rect>
  <rect width="1" height="1" x="12" y="27" fill="#565656"></rect>
  <rect width="1" height="1" x="13" y="27" fill="#565656"></rect>
  <rect width="1" height="1" x="14" y="27" fill="#565656"></rect>
  <rect width="1" height="1" x="15" y="27" fill="#565656"></rect>
  <rect width="1" height="1" x="16" y="27" fill="#565656"></rect>
  <rect width="1" height="1" x="17" y="27" fill="#565656"></rect>
  <rect width="1" height="1" x="18" y="27" fill="#565656"></rect>
  <rect width="1" height="1" x="19" y="27" fill="#565656"></rect>
  <rect width="1" height="1" x="20" y="27" fill="#565656"></rect>
  <rect width="1" height="1" x="21" y="27" fill="#565656"></rect>
  <rect width="1" height="1" x="22" y="27" fill="#454545"></rect>
  <rect width="1" height="1" x="23" y="27"></rect>
  <rect width="1" height="1" x="24" y="27"></rect>
  <rect width="1" height="1" x="25" y="27"></rect>
  <rect width="1" height="1" x="9" y="28"></rect>
  <rect width="1" height="1" x="10" y="28"></rect>
  <rect width="1" height="1" x="11" y="28"></rect>
  <rect width="1" height="1" x="12" y="28"></rect>
  <rect width="1" height="1" x="13" y="28"></rect>
  <rect width="1" height="1" x="14" y="28" fill="#454545"></rect>
  <rect width="1" height="1" x="15" y="28" fill="#565656"></rect>
  <rect width="1" height="1" x="16" y="28" fill="#565656"></rect>
  <rect width="1" height="1" x="17" y="28" fill="#454545"></rect>
  <rect width="1" height="1" x="18" y="28"></rect>
  <rect width="1" height="1" x="19" y="28"></rect>
  <rect width="1" height="1" x="20" y="28"></rect>
  <rect width="1" height="1" x="21" y="28"></rect>
  <rect width="1" height="1" x="22" y="28"></rect>
  <rect width="1" height="1" x="14" y="29"></rect>
  <rect width="1" height="1" x="15" y="29"></rect>
  <rect width="1" height="1" x="16" y="29"></rect>
  <rect width="1" height="1" x="17" y="29"></rect>
</svg>
