<svg xmlns="http://www.w3.org/2000/svg" width="32" height="32" shape-rendering="crispEdges" id="cute-fox-head">
  <rect width="1" height="1" x="3"></rect>
  <rect width="1" height="1" x="27"></rect>
  <rect width="1" height="1" x="2" y="1"></rect>
  <rect width="1" height="1" x="3" y="1" fill="#E48254"></rect>
  <rect width="1" height="1" x="4" y="1"></rect>
  <rect width="1" height="1" x="26" y="1"></rect>
  <rect width="1" height="1" x="27" y="1" fill="#E48254"></rect>
  <rect width="1" height="1" x="28" y="1"></rect>
  <rect width="1" height="1" x="2" y="2"></rect>
  <rect width="1" height="1" x="3" y="2" fill="#E05718"></rect>
  <rect width="1" height="1" x="4" y="2" fill="#E48254"></rect>
  <rect width="1" height="1" x="5" y="2"></rect>
  <rect width="1" height="1" x="6" y="2"></rect>
  <rect width="1" height="1" x="24" y="2"></rect>
  <rect width="1" height="1" x="25" y="2"></rect>
  <rect width="1" height="1" x="26" y="2" fill="#E48254"></rect>
  <rect width="1" height="1" x="27" y="2" fill="#E05718"></rect>
  <rect width="1" height="1" x="28" y="2"></rect>
  <rect width="1" height="1" x="1" y="3"></rect>
  <rect width="1" height="1" x="2" y="3" fill="#E48254"></rect>
  <rect width="1" height="1" x="3" y="3" fill="#E05718"></rect>
  <rect width="1" height="1" x="4" y="3" fill="#E05718"></rect>
  <rect width="1" height="1" x="5" y="3" fill="#E05718"></rect>
  <rect width="1" height="1" x="6" y="3" fill="#E48254"></rect>
  <rect width="1" height="1" x="7" y="3"></rect>
  <rect width="1" height="1" x="23" y="3"></rect>
  <rect width="1" height="1" x="24" y="3" fill="#E48254"></rect>
  <rect width="1" height="1" x="25" y="3" fill="#E05718"></rect>
  <rect width="1" height="1" x="26" y="3" fill="#E05718"></rect>
  <rect width="1" height="1" x="27" y="3" fill="#E05718"></rect>
  <rect width="1" height="1" x="28" y="3" fill="#E48254"></rect>
  <rect width="1" height="1" x="29" y="3"></rect>
  <rect width="1" height="1" x="1" y="4"></rect>
  <rect width="1" height="1" x="2" y="4" fill="#E05718"></rect>
  <rect width="1" height="1" x="3" y="4" fill="#E05718"></rect>
  <rect width="1" height="1" x="4" y="4" fill="#BE1B1B"></rect>
  <rect width="1" height="1" x="5" y="4" fill="#BE1B1B"></rect>
  <rect width="1" height="1" x="6" y="4" fill="#E05718"></rect>
  <rect width="1" height="1" x="7" y="4" fill="#E48254"></rect>
  <rect width="1" height="1" x="8" y="4"></rect>
  <rect width="1" height="1" x="22" y="4"></rect>
  <rect width="1" height="1" x="23" y="4" fill="#E48254"></rect>
  <rect width="1" height="1" x="24" y="4" fill="#E05718"></rect>
  <rect width="1" height="1" x="25" y="4" fill="#BE1B1B"></rect>
  <rect width="1" height="1" x="26" y="4" fill="#BE1B1B"></rect>
  <rect width="1" height="1" x="27" y="4" fill="#E05718"></rect>
  <rect width="1" height="1" x="28" y="4" fill="#E05718"></rect>
  <rect width="1" height="1" x="29" y="4"></rect>
  <rect width="1" height="1" x="1" y="5"></rect>
  <rect width="1" height="1" x="2" y="5" fill="#E48254"></rect>
  <rect width="1" height="1" x="3" y="5" fill="#BE1B1B"></rect>
  <rect width="1" height="1" x="4" y="5" fill="#BE1B1B"></rect>
  <rect width="1" height="1" x="5" y="5" fill="#BE1B1B"></rect>
  <rect width="1" height="1" x="6" y="5" fill="#BE1B1B"></rect>
  <rect width="1" height="1" x="7" y="5" fill="#E05718"></rect>
  <rect width="1" height="1" x="8" y="5" fill="#E48254"></rect>
  <rect width="1" height="1" x="9" y="5"></rect>
  <rect width="1" height="1" x="21" y="5"></rect>
  <rect width="1" height="1" x="22" y="5" fill="#E48254"></rect>
  <rect width="1" height="1" x="23" y="5" fill="#E05718"></rect>
  <rect width="1" height="1" x="24" y="5" fill="#BE1B1B"></rect>
  <rect width="1" height="1" x="25" y="5" fill="#BE1B1B"></rect>
  <rect width="1" height="1" x="26" y="5" fill="#BE1B1B"></rect>
  <rect width="1" height="1" x="27" y="5" fill="#BE1B1B"></rect>
  <rect width="1" height="1" x="28" y="5" fill="#E48254"></rect>
  <rect width="1" height="1" x="29" y="5"></rect>
  <rect width="1" height="1" x="1" y="6"></rect>
  <rect width="1" height="1" x="2" y="6" fill="#E48254"></rect>
  <rect width="1" height="1" x="3" y="6" fill="#BE1B1B"></rect>
  <rect width="1" height="1" x="4" y="6" fill="#BE1B1B"></rect>
  <rect width="1" height="1" x="5" y="6" fill="#BE1B1B"></rect>
  <rect width="1" height="1" x="6" y="6" fill="#8D2A2A"></rect>
  <rect width="1" height="1" x="7" y="6" fill="#E05718"></rect>
  <rect width="1" height="1" x="8" y="6" fill="#E05718"></rect>
  <rect width="1" height="1" x="9" y="6" fill="#E05718"></rect>
  <rect width="1" height="1" x="10" y="6"></rect>
  <rect width="1" height="1" x="11" y="6"></rect>
  <rect width="1" height="1" x="12" y="6"></rect>
  <rect width="1" height="1" x="13" y="6"></rect>
  <rect width="1" height="1" x="14" y="6"></rect>
  <rect width="1" height="1" x="15" y="6"></rect>
  <rect width="1" height="1" x="16" y="6"></rect>
  <rect width="1" height="1" x="17" y="6"></rect>
  <rect width="1" height="1" x="18" y="6"></rect>
  <rect width="1" height="1" x="19" y="6"></rect>
  <rect width="1" height="1" x="20" y="6"></rect>
  <rect width="1" height="1" x="21" y="6" fill="#E05718"></rect>
  <rect width="1" height="1" x="22" y="6" fill="#E05718"></rect>
  <rect width="1" height="1" x="23" y="6" fill="#E05718"></rect>
  <rect width="1" height="1" x="24" y="6" fill="#8D2A2A"></rect>
  <rect width="1" height="1" x="25" y="6" fill="#BE1B1B"></rect>
  <rect width="1" height="1" x="26" y="6" fill="#BE1B1B"></rect>
  <rect width="1" height="1" x="27" y="6" fill="#BE1B1B"></rect>
  <rect width="1" height="1" x="28" y="6" fill="#E48254"></rect>
  <rect width="1" height="1" x="29" y="6"></rect>
  <rect width="1" height="1" x="1" y="7"></rect>
  <rect width="1" height="1" x="2" y="7" fill="#E48254"></rect>
  <rect width="1" height="1" x="3" y="7" fill="#BE1B1B"></rect>
  <rect width="1" height="1" x="4" y="7" fill="#BE1B1B"></rect>
  <rect width="1" height="1" x="5" y="7" fill="#8D2A2A"></rect>
  <rect width="1" height="1" x="6" y="7" fill="#601D1D"></rect>
  <rect width="1" height="1" x="7" y="7" fill="#831717"></rect>
  <rect width="1" height="1" x="8" y="7" fill="#831717"></rect>
  <rect width="1" height="1" x="9" y="7" fill="#831717"></rect>
  <rect width="1" height="1" x="10" y="7" fill="#E48254"></rect>
  <rect width="1" height="1" x="11" y="7" fill="#E48254"></rect>
  <rect width="1" height="1" x="12" y="7" fill="#E48254"></rect>
  <rect width="1" height="1" x="13" y="7" fill="#E48254"></rect>
  <rect width="1" height="1" x="14" y="7" fill="#E48254"></rect>
  <rect width="1" height="1" x="15" y="7" fill="#E48254"></rect>
  <rect width="1" height="1" x="16" y="7" fill="#E48254"></rect>
  <rect width="1" height="1" x="17" y="7" fill="#E48254"></rect>
  <rect width="1" height="1" x="18" y="7" fill="#E48254"></rect>
  <rect width="1" height="1" x="19" y="7" fill="#E48254"></rect>
  <rect width="1" height="1" x="20" y="7" fill="#E48254"></rect>
  <rect width="1" height="1" x="21" y="7" fill="#831717"></rect>
  <rect width="1" height="1" x="22" y="7" fill="#831717"></rect>
  <rect width="1" height="1" x="23" y="7" fill="#831717"></rect>
  <rect width="1" height="1" x="24" y="7" fill="#601D1D"></rect>
  <rect width="1" height="1" x="25" y="7" fill="#8D2A2A"></rect>
  <rect width="1" height="1" x="26" y="7" fill="#BE1B1B"></rect>
  <rect width="1" height="1" x="27" y="7" fill="#BE1B1B"></rect>
  <rect width="1" height="1" x="28" y="7" fill="#E48254"></rect>
  <rect width="1" height="1" x="29" y="7"></rect>
  <rect width="1" height="1" x="1" y="8"></rect>
  <rect width="1" height="1" x="2" y="8" fill="#E48254"></rect>
  <rect width="1" height="1" x="3" y="8" fill="#BE1B1B"></rect>
  <rect width="1" height="1" x="4" y="8" fill="#8D2A2A"></rect>
  <rect width="1" height="1" x="5" y="8" fill="#601D1D"></rect>
  <rect width="1" height="1" x="6" y="8" fill="#831717"></rect>
  <rect width="1" height="1" x="7" y="8" fill="#E48254"></rect>
  <rect width="1" height="1" x="8" y="8" fill="#E48254"></rect>
  <rect width="1" height="1" x="9" y="8" fill="#E48254"></rect>
  <rect width="1" height="1" x="10" y="8" fill="#E05718"></rect>
  <rect width="1" height="1" x="11" y="8" fill="#E05718"></rect>
  <rect width="1" height="1" x="12" y="8" fill="#E05718"></rect>
  <rect width="1" height="1" x="13" y="8" fill="#E05718"></rect>
  <rect width="1" height="1" x="14" y="8" fill="#E05718"></rect>
  <rect width="1" height="1" x="15" y="8" fill="#E05718"></rect>
  <rect width="1" height="1" x="16" y="8" fill="#E05718"></rect>
  <rect width="1" height="1" x="17" y="8" fill="#E05718"></rect>
  <rect width="1" height="1" x="18" y="8" fill="#E05718"></rect>
  <rect width="1" height="1" x="19" y="8" fill="#E05718"></rect>
  <rect width="1" height="1" x="20" y="8" fill="#E05718"></rect>
  <rect width="1" height="1" x="21" y="8" fill="#E48254"></rect>
  <rect width="1" height="1" x="22" y="8" fill="#E48254"></rect>
  <rect width="1" height="1" x="23" y="8" fill="#E48254"></rect>
  <rect width="1" height="1" x="24" y="8" fill="#831717"></rect>
  <rect width="1" height="1" x="25" y="8" fill="#601D1D"></rect>
  <rect width="1" height="1" x="26" y="8" fill="#8D2A2A"></rect>
  <rect width="1" height="1" x="27" y="8" fill="#BE1B1B"></rect>
  <rect width="1" height="1" x="28" y="8" fill="#E48254"></rect>
  <rect width="1" height="1" x="29" y="8"></rect>
  <rect width="1" height="1" x="1" y="9"></rect>
  <rect width="1" height="1" x="2" y="9" fill="#E05718"></rect>
  <rect width="1" height="1" x="3" y="9" fill="#8D2A2A"></rect>
  <rect width="1" height="1" x="4" y="9" fill="#601D1D"></rect>
  <rect width="1" height="1" x="5" y="9" fill="#831717"></rect>
  <rect width="1" height="1" x="6" y="9" fill="#E48254"></rect>
  <rect width="1" height="1" x="7" y="9" fill="#E05718"></rect>
  <rect width="1" height="1" x="8" y="9" fill="#E05718"></rect>
  <rect width="1" height="1" x="9" y="9" fill="#E05718"></rect>
  <rect width="1" height="1" x="10" y="9" fill="#E05718"></rect>
  <rect width="1" height="1" x="11" y="9" fill="#E05718"></rect>
  <rect width="1" height="1" x="12" y="9" fill="#E05718"></rect>
  <rect width="1" height="1" x="13" y="9" fill="#E05718"></rect>
  <rect width="1" height="1" x="14" y="9" fill="#E05718"></rect>
  <rect width="1" height="1" x="15" y="9" fill="#E05718"></rect>
  <rect width="1" height="1" x="16" y="9" fill="#E05718"></rect>
  <rect width="1" height="1" x="17" y="9" fill="#E05718"></rect>
  <rect width="1" height="1" x="18" y="9" fill="#E05718"></rect>
  <rect width="1" height="1" x="19" y="9" fill="#E05718"></rect>
  <rect width="1" height="1" x="20" y="9" fill="#E05718"></rect>
  <rect width="1" height="1" x="21" y="9" fill="#E05718"></rect>
  <rect width="1" height="1" x="22" y="9" fill="#E05718"></rect>
  <rect width="1" height="1" x="23" y="9" fill="#E05718"></rect>
  <rect width="1" height="1" x="24" y="9" fill="#E48254"></rect>
  <rect width="1" height="1" x="25" y="9" fill="#831717"></rect>
  <rect width="1" height="1" x="26" y="9" fill="#601D1D"></rect>
  <rect width="1" height="1" x="27" y="9" fill="#8D2A2A"></rect>
  <rect width="1" height="1" x="28" y="9" fill="#E48254"></rect>
  <rect width="1" height="1" x="29" y="9"></rect>
  <rect width="1" height="1" x="1" y="10"></rect>
  <rect width="1" height="1" x="2" y="10" fill="#E48254"></rect>
  <rect width="1" height="1" x="3" y="10" fill="#601D1D"></rect>
  <rect width="1" height="1" x="4" y="10" fill="#831717"></rect>
  <rect width="1" height="1" x="5" y="10" fill="#E48254"></rect>
  <rect width="1" height="1" x="6" y="10" fill="#E05718"></rect>
  <rect width="1" height="1" x="7" y="10" fill="#E05718"></rect>
  <rect width="1" height="1" x="8" y="10" fill="#E05718"></rect>
  <rect width="1" height="1" x="9" y="10" fill="#E05718"></rect>
  <rect width="1" height="1" x="10" y="10" fill="#E05718"></rect>
  <rect width="1" height="1" x="11" y="10" fill="#E05718"></rect>
  <rect width="1" height="1" x="12" y="10" fill="#E05718"></rect>
  <rect width="1" height="1" x="13" y="10" fill="#E05718"></rect>
  <rect width="1" height="1" x="14" y="10" fill="#E05718"></rect>
  <rect width="1" height="1" x="15" y="10" fill="#E05718"></rect>
  <rect width="1" height="1" x="16" y="10" fill="#E05718"></rect>
  <rect width="1" height="1" x="17" y="10" fill="#E05718"></rect>
  <rect width="1" height="1" x="18" y="10" fill="#E05718"></rect>
  <rect width="1" height="1" x="19" y="10" fill="#E05718"></rect>
  <rect width="1" height="1" x="20" y="10" fill="#E05718"></rect>
  <rect width="1" height="1" x="21" y="10" fill="#E05718"></rect>
  <rect width="1" height="1" x="22" y="10" fill="#E05718"></rect>
  <rect width="1" height="1" x="23" y="10" fill="#E05718"></rect>
  <rect width="1" height="1" x="24" y="10" fill="#E05718"></rect>
  <rect width="1" height="1" x="25" y="10" fill="#E48254"></rect>
  <rect width="1" height="1" x="26" y="10" fill="#831717"></rect>
  <rect width="1" height="1" x="27" y="10" fill="#601D1D"></rect>
  <rect width="1" height="1" x="28" y="10" fill="#E05718"></rect>
  <rect width="1" height="1" x="29" y="10"></rect>
  <rect width="1" height="1" x="1" y="11"></rect>
  <rect width="1" height="1" x="2" y="11" fill="#E05718"></rect>
  <rect width="1" height="1" x="3" y="11" fill="#831717"></rect>
  <rect width="1" height="1" x="4" y="11" fill="#E48254"></rect>
  <rect width="1" height="1" x="5" y="11" fill="#E05718"></rect>
  <rect width="1" height="1" x="6" y="11" fill="#E05718"></rect>
  <rect width="1" height="1" x="7" y="11" fill="#E05718"></rect>
  <rect width="1" height="1" x="8" y="11" fill="#E05718"></rect>
  <rect width="1" height="1" x="9" y="11" fill="#E05718"></rect>
  <rect width="1" height="1" x="10" y="11" fill="#E05718"></rect>
  <rect width="1" height="1" x="11" y="11" fill="#E05718"></rect>
  <rect width="1" height="1" x="12" y="11" fill="#E05718"></rect>
  <rect width="1" height="1" x="13" y="11" fill="#E05718"></rect>
  <rect width="1" height="1" x="14" y="11" fill="#E05718"></rect>
  <rect width="1" height="1" x="15" y="11" fill="#E05718"></rect>
  <rect width="1" height="1" x="16" y="11" fill="#E05718"></rect>
  <rect width="1" height="1" x="17" y="11" fill="#E05718"></rect>
  <rect width="1" height="1" x="18" y="11" fill="#E05718"></rect>
  <rect width="1" height="1" x="19" y="11" fill="#E05718"></rect>
  <rect width="1" height="1" x="20" y="11" fill="#E05718"></rect>
  <rect width="1" height="1" x="21" y="11" fill="#E05718"></rect>
  <rect width="1" height="1" x="22" y="11" fill="#E05718"></rect>
  <rect width="1" height="1" x="23" y="11" fill="#E05718"></rect>
  <rect width="1" height="1" x="24" y="11" fill="#E05718"></rect>
  <rect width="1" height="1" x="25" y="11" fill="#E05718"></rect>
  <rect width="1" height="1" x="26" y="11" fill="#E48254"></rect>
  <rect width="1" height="1" x="27" y="11" fill="#831717"></rect>
  <rect width="1" height="1" x="28" y="11" fill="#E48254"></rect>
  <rect width="1" height="1" x="29" y="11"></rect>
  <rect width="1" height="1" x="1" y="12"></rect>
  <rect width="1" height="1" x="2" y="12" fill="#E05718"></rect>
  <rect width="1" height="1" x="3" y="12" fill="#831717"></rect>
  <rect width="1" height="1" x="4" y="12" fill="#E05718"></rect>
  <rect width="1" height="1" x="5" y="12" fill="#E05718"></rect>
  <rect width="1" height="1" x="6" y="12" fill="#E05718"></rect>
  <rect width="1" height="1" x="7" y="12" fill="#E05718"></rect>
  <rect width="1" height="1" x="8" y="12" fill="#E05718"></rect>
  <rect width="1" height="1" x="9" y="12" fill="#E05718"></rect>
  <rect width="1" height="1" x="10" y="12" fill="#E05718"></rect>
  <rect width="1" height="1" x="11" y="12" fill="#E05718"></rect>
  <rect width="1" height="1" x="12" y="12" fill="#E05718"></rect>
  <rect width="1" height="1" x="13" y="12" fill="#E05718"></rect>
  <rect width="1" height="1" x="14" y="12" fill="#E05718"></rect>
  <rect width="1" height="1" x="15" y="12" fill="#E05718"></rect>
  <rect width="1" height="1" x="16" y="12" fill="#E05718"></rect>
  <rect width="1" height="1" x="17" y="12" fill="#E05718"></rect>
  <rect width="1" height="1" x="18" y="12" fill="#E05718"></rect>
  <rect width="1" height="1" x="19" y="12" fill="#E05718"></rect>
  <rect width="1" height="1" x="20" y="12" fill="#E05718"></rect>
  <rect width="1" height="1" x="21" y="12" fill="#E05718"></rect>
  <rect width="1" height="1" x="22" y="12" fill="#E05718"></rect>
  <rect width="1" height="1" x="23" y="12" fill="#E05718"></rect>
  <rect width="1" height="1" x="24" y="12" fill="#E05718"></rect>
  <rect width="1" height="1" x="25" y="12" fill="#E05718"></rect>
  <rect width="1" height="1" x="26" y="12" fill="#E05718"></rect>
  <rect width="1" height="1" x="27" y="12" fill="#831717"></rect>
  <rect width="1" height="1" x="28" y="12" fill="#E05718"></rect>
  <rect width="1" height="1" x="29" y="12"></rect>
  <rect width="1" height="1" x="1" y="13"></rect>
  <rect width="1" height="1" x="2" y="13" fill="#E05718"></rect>
  <rect width="1" height="1" x="3" y="13" fill="#831717"></rect>
  <rect width="1" height="1" x="4" y="13" fill="#E05718"></rect>
  <rect width="1" height="1" x="5" y="13" fill="#E05718"></rect>
  <rect width="1" height="1" x="6" y="13" fill="#E05718"></rect>
  <rect width="1" height="1" x="7" y="13" fill="#E05718"></rect>
  <rect width="1" height="1" x="8" y="13" fill="#E05718"></rect>
  <rect width="1" height="1" x="9" y="13" fill="#E05718"></rect>
  <rect width="1" height="1" x="10" y="13" fill="#E05718"></rect>
  <rect width="1" height="1" x="11" y="13" fill="#E05718"></rect>
  <rect width="1" height="1" x="12" y="13" fill="#E05718"></rect>
  <rect width="1" height="1" x="13" y="13" fill="#E05718"></rect>
  <rect width="1" height="1" x="14" y="13" fill="#E05718"></rect>
  <rect width="1" height="1" x="15" y="13" fill="#E05718"></rect>
  <rect width="1" height="1" x="16" y="13" fill="#E05718"></rect>
  <rect width="1" height="1" x="17" y="13" fill="#E05718"></rect>
  <rect width="1" height="1" x="18" y="13" fill="#E05718"></rect>
  <rect width="1" height="1" x="19" y="13" fill="#E05718"></rect>
  <rect width="1" height="1" x="20" y="13" fill="#E05718"></rect>
  <rect width="1" height="1" x="21" y="13" fill="#E05718"></rect>
  <rect width="1" height="1" x="22" y="13" fill="#E05718"></rect>
  <rect width="1" height="1" x="23" y="13" fill="#E05718"></rect>
  <rect width="1" height="1" x="24" y="13" fill="#E05718"></rect>
  <rect width="1" height="1" x="25" y="13" fill="#E05718"></rect>
  <rect width="1" height="1" x="26" y="13" fill="#E05718"></rect>
  <rect width="1" height="1" x="27" y="13" fill="#831717"></rect>
  <rect width="1" height="1" x="28" y="13" fill="#E05718"></rect>
  <rect width="1" height="1" x="29" y="13"></rect>
  <rect width="1" height="1" x="2" y="14"></rect>
  <rect width="1" height="1" x="3" y="14" fill="#E48254"></rect>
  <rect width="1" height="1" x="4" y="14" fill="#E05718"></rect>
  <rect width="1" height="1" x="5" y="14" fill="#E05718"></rect>
  <rect width="1" height="1" x="6" y="14" fill="#E05718"></rect>
  <rect width="1" height="1" x="7" y="14" fill="#E05718"></rect>
  <rect width="1" height="1" x="8" y="14" fill="#E05718"></rect>
  <rect width="1" height="1" x="9" y="14" fill="#E05718"></rect>
  <rect width="1" height="1" x="10" y="14" fill="#E05718"></rect>
  <rect width="1" height="1" x="11" y="14" fill="#E05718"></rect>
  <rect width="1" height="1" x="12" y="14" fill="#E05718"></rect>
  <rect width="1" height="1" x="13" y="14" fill="#E05718"></rect>
  <rect width="1" height="1" x="14" y="14" fill="#E05718"></rect>
  <rect width="1" height="1" x="15" y="14" fill="#E05718"></rect>
  <rect width="1" height="1" x="16" y="14" fill="#E05718"></rect>
  <rect width="1" height="1" x="17" y="14" fill="#E05718"></rect>
  <rect width="1" height="1" x="18" y="14" fill="#E05718"></rect>
  <rect width="1" height="1" x="19" y="14" fill="#E05718"></rect>
  <rect width="1" height="1" x="20" y="14" fill="#E05718"></rect>
  <rect width="1" height="1" x="21" y="14" fill="#E05718"></rect>
  <rect width="1" height="1" x="22" y="14" fill="#E05718"></rect>
  <rect width="1" height="1" x="23" y="14" fill="#E05718"></rect>
  <rect width="1" height="1" x="24" y="14" fill="#E05718"></rect>
  <rect width="1" height="1" x="25" y="14" fill="#E05718"></rect>
  <rect width="1" height="1" x="26" y="14" fill="#E05718"></rect>
  <rect width="1" height="1" x="27" y="14" fill="#E48254"></rect>
  <rect width="1" height="1" x="28" y="14"></rect>
  <rect width="1" height="1" x="2" y="15"></rect>
  <rect width="1" height="1" x="3" y="15" fill="#E05718"></rect>
  <rect width="1" height="1" x="4" y="15" fill="#E05718"></rect>
  <rect width="1" height="1" x="5" y="15" fill="#E05718"></rect>
  <rect width="1" height="1" x="6" y="15" fill="#E05718"></rect>
  <rect width="1" height="1" x="7" y="15" fill="#E05718"></rect>
  <rect width="1" height="1" x="8" y="15" fill="#E05718"></rect>
  <rect width="1" height="1" x="9" y="15" fill="#E05718"></rect>
  <rect width="1" height="1" x="10" y="15" fill="#E05718"></rect>
  <rect width="1" height="1" x="11" y="15" fill="#E05718"></rect>
  <rect width="1" height="1" x="12" y="15" fill="#E05718"></rect>
  <rect width="1" height="1" x="13" y="15" fill="#E05718"></rect>
  <rect width="1" height="1" x="14" y="15" fill="#E05718"></rect>
  <rect width="1" height="1" x="15" y="15" fill="#E05718"></rect>
  <rect width="1" height="1" x="16" y="15" fill="#E05718"></rect>
  <rect width="1" height="1" x="17" y="15" fill="#E05718"></rect>
  <rect width="1" height="1" x="18" y="15" fill="#E05718"></rect>
  <rect width="1" height="1" x="19" y="15" fill="#E05718"></rect>
  <rect width="1" height="1" x="20" y="15" fill="#E05718"></rect>
  <rect width="1" height="1" x="21" y="15" fill="#E05718"></rect>
  <rect width="1" height="1" x="22" y="15" fill="#E05718"></rect>
  <rect width="1" height="1" x="23" y="15" fill="#E05718"></rect>
  <rect width="1" height="1" x="24" y="15" fill="#E05718"></rect>
  <rect width="1" height="1" x="25" y="15" fill="#E05718"></rect>
  <rect width="1" height="1" x="26" y="15" fill="#E05718"></rect>
  <rect width="1" height="1" x="27" y="15" fill="#E05718"></rect>
  <rect width="1" height="1" x="28" y="15"></rect>
  <rect width="1" height="1" x="2" y="16"></rect>
  <rect width="1" height="1" x="3" y="16" fill="#E05718"></rect>
  <rect width="1" height="1" x="4" y="16" fill="#E05718"></rect>
  <rect width="1" height="1" x="5" y="16" fill="#E05718"></rect>
  <rect width="1" height="1" x="6" y="16" fill="#B84B1A"></rect>
  <rect width="1" height="1" x="7" y="16" fill="#703418"></rect>
  <rect width="1" height="1" x="8" y="16" fill="#703418"></rect>
  <rect width="1" height="1" x="9" y="16" fill="#703418"></rect>
  <rect width="1" height="1" x="10" y="16" fill="#703418"></rect>
  <rect width="1" height="1" x="11" y="16" fill="#B84B1A"></rect>
  <rect width="1" height="1" x="12" y="16" fill="#E05718"></rect>
  <rect width="1" height="1" x="13" y="16" fill="#E05718"></rect>
  <rect width="1" height="1" x="14" y="16" fill="#E05718"></rect>
  <rect width="1" height="1" x="15" y="16" fill="#E05718"></rect>
  <rect width="1" height="1" x="16" y="16" fill="#E05718"></rect>
  <rect width="1" height="1" x="17" y="16" fill="#E05718"></rect>
  <rect width="1" height="1" x="18" y="16" fill="#E05718"></rect>
  <rect width="1" height="1" x="19" y="16" fill="#B84B1A"></rect>
  <rect width="1" height="1" x="20" y="16" fill="#703418"></rect>
  <rect width="1" height="1" x="21" y="16" fill="#703418"></rect>
  <rect width="1" height="1" x="22" y="16" fill="#703418"></rect>
  <rect width="1" height="1" x="23" y="16" fill="#703418"></rect>
  <rect width="1" height="1" x="24" y="16" fill="#B84B1A"></rect>
  <rect width="1" height="1" x="25" y="16" fill="#E05718"></rect>
  <rect width="1" height="1" x="26" y="16" fill="#E05718"></rect>
  <rect width="1" height="1" x="27" y="16" fill="#E05718"></rect>
  <rect width="1" height="1" x="28" y="16"></rect>
  <rect width="1" height="1" x="2" y="17"></rect>
  <rect width="1" height="1" x="3" y="17" fill="#E05718"></rect>
  <rect width="1" height="1" x="4" y="17" fill="#E05718"></rect>
  <rect width="1" height="1" x="5" y="17" fill="#E05718"></rect>
  <rect width="1" height="1" x="6" y="17" fill="#E05718"></rect>
  <rect width="1" height="1" x="7" y="17" fill="#E05718"></rect>
  <rect width="1" height="1" x="8" y="17" fill="#E05718"></rect>
  <rect width="1" height="1" x="9" y="17" fill="#E05718"></rect>
  <rect width="1" height="1" x="10" y="17" fill="#B84B1A"></rect>
  <rect width="1" height="1" x="11" y="17" fill="#703418"></rect>
  <rect width="1" height="1" x="12" y="17" fill="#B84B1A"></rect>
  <rect width="1" height="1" x="13" y="17" fill="#E05718"></rect>
  <rect width="1" height="1" x="14" y="17" fill="#E05718"></rect>
  <rect width="1" height="1" x="15" y="17" fill="#E05718"></rect>
  <rect width="1" height="1" x="16" y="17" fill="#E05718"></rect>
  <rect width="1" height="1" x="17" y="17" fill="#E05718"></rect>
  <rect width="1" height="1" x="18" y="17" fill="#B84B1A"></rect>
  <rect width="1" height="1" x="19" y="17" fill="#703418"></rect>
  <rect width="1" height="1" x="20" y="17" fill="#B84B1A"></rect>
  <rect width="1" height="1" x="21" y="17" fill="#E05718"></rect>
  <rect width="1" height="1" x="22" y="17" fill="#E05718"></rect>
  <rect width="1" height="1" x="23" y="17" fill="#E05718"></rect>
  <rect width="1" height="1" x="24" y="17" fill="#E05718"></rect>
  <rect width="1" height="1" x="25" y="17" fill="#E05718"></rect>
  <rect width="1" height="1" x="26" y="17" fill="#E05718"></rect>
  <rect width="1" height="1" x="27" y="17" fill="#E05718"></rect>
  <rect width="1" height="1" x="28" y="17"></rect>
  <rect width="1" height="1" x="2" y="18"></rect>
  <rect width="1" height="1" x="3" y="18" fill="#E05718"></rect>
  <rect width="1" height="1" x="4" y="18" fill="#E05718"></rect>
  <rect width="1" height="1" x="5" y="18" fill="#E05718"></rect>
  <rect width="1" height="1" x="6" y="18" fill="#E05718"></rect>
  <rect width="1" height="1" x="7" y="18" fill="#E05718"></rect>
  <rect width="1" height="1" x="8" y="18" fill="#E05718"></rect>
  <rect width="1" height="1" x="9" y="18" fill="#E05718"></rect>
  <rect width="1" height="1" x="10" y="18" fill="#E05718"></rect>
  <rect width="1" height="1" x="11" y="18" fill="#B84B1A"></rect>
  <rect width="1" height="1" x="12" y="18" fill="#703418"></rect>
  <rect width="1" height="1" x="13" y="18" fill="#E05718"></rect>
  <rect width="1" height="1" x="14" y="18" fill="#E05718"></rect>
  <rect width="1" height="1" x="15" y="18" fill="#E05718"></rect>
  <rect width="1" height="1" x="16" y="18" fill="#E05718"></rect>
  <rect width="1" height="1" x="17" y="18" fill="#E05718"></rect>
  <rect width="1" height="1" x="18" y="18" fill="#703418"></rect>
  <rect width="1" height="1" x="19" y="18" fill="#B84B1A"></rect>
  <rect width="1" height="1" x="20" y="18" fill="#E05718"></rect>
  <rect width="1" height="1" x="21" y="18" fill="#E05718"></rect>
  <rect width="1" height="1" x="22" y="18" fill="#E05718"></rect>
  <rect width="1" height="1" x="23" y="18" fill="#E05718"></rect>
  <rect width="1" height="1" x="24" y="18" fill="#E05718"></rect>
  <rect width="1" height="1" x="25" y="18" fill="#E05718"></rect>
  <rect width="1" height="1" x="26" y="18" fill="#E05718"></rect>
  <rect width="1" height="1" x="27" y="18" fill="#E05718"></rect>
  <rect width="1" height="1" x="28" y="18"></rect>
  <rect width="1" height="1" x="2" y="19"></rect>
  <rect width="1" height="1" x="3" y="19" fill="#E05718"></rect>
  <rect width="1" height="1" x="4" y="19" fill="#E05718"></rect>
  <rect width="1" height="1" x="5" y="19" fill="#E05718"></rect>
  <rect width="1" height="1" x="6" y="19" fill="#E05718"></rect>
  <rect width="1" height="1" x="7" y="19" fill="#E05718"></rect>
  <rect width="1" height="1" x="8" y="19" fill="#E05718"></rect>
  <rect width="1" height="1" x="9" y="19" fill="#E05718"></rect>
  <rect width="1" height="1" x="10" y="19" fill="#E05718"></rect>
  <rect width="1" height="1" x="11" y="19" fill="#E05718"></rect>
  <rect width="1" height="1" x="12" y="19" fill="#E05718"></rect>
  <rect width="1" height="1" x="13" y="19" fill="#B84B1A"></rect>
  <rect width="1" height="1" x="14" y="19" fill="#E05718"></rect>
  <rect width="1" height="1" x="15" y="19" fill="#E05718"></rect>
  <rect width="1" height="1" x="16" y="19" fill="#E05718"></rect>
  <rect width="1" height="1" x="17" y="19" fill="#B84B1A"></rect>
  <rect width="1" height="1" x="18" y="19" fill="#E05718"></rect>
  <rect width="1" height="1" x="19" y="19" fill="#E05718"></rect>
  <rect width="1" height="1" x="20" y="19" fill="#E05718"></rect>
  <rect width="1" height="1" x="21" y="19" fill="#E05718"></rect>
  <rect width="1" height="1" x="22" y="19" fill="#E05718"></rect>
  <rect width="1" height="1" x="23" y="19" fill="#E05718"></rect>
  <rect width="1" height="1" x="24" y="19" fill="#E05718"></rect>
  <rect width="1" height="1" x="25" y="19" fill="#E05718"></rect>
  <rect width="1" height="1" x="26" y="19" fill="#E05718"></rect>
  <rect width="1" height="1" x="27" y="19" fill="#E05718"></rect>
  <rect width="1" height="1" x="28" y="19"></rect>
  <rect width="1" height="1" x="2" y="20"></rect>
  <rect width="1" height="1" x="3" y="20" fill="#E05718"></rect>
  <rect width="1" height="1" x="4" y="20" fill="#E05718"></rect>
  <rect width="1" height="1" x="5" y="20" fill="#E05718"></rect>
  <rect width="1" height="1" x="6" y="20" fill="#E05718"></rect>
  <rect width="1" height="1" x="7" y="20" fill="#E05718"></rect>
  <rect width="1" height="1" x="8" y="20" fill="#E05718"></rect>
  <rect width="1" height="1" x="9" y="20" fill="#E05718"></rect>
  <rect width="1" height="1" x="10" y="20" fill="#E05718"></rect>
  <rect width="1" height="1" x="11" y="20" fill="#E05718"></rect>
  <rect width="1" height="1" x="12" y="20" fill="#E05718"></rect>
  <rect width="1" height="1" x="13" y="20" fill="#E05718"></rect>
  <rect width="1" height="1" x="14" y="20" fill="#E05718"></rect>
  <rect width="1" height="1" x="15" y="20" fill="#E05718"></rect>
  <rect width="1" height="1" x="16" y="20" fill="#E05718"></rect>
  <rect width="1" height="1" x="17" y="20" fill="#E05718"></rect>
  <rect width="1" height="1" x="18" y="20" fill="#E05718"></rect>
  <rect width="1" height="1" x="19" y="20" fill="#E05718"></rect>
  <rect width="1" height="1" x="20" y="20" fill="#E05718"></rect>
  <rect width="1" height="1" x="21" y="20" fill="#E05718"></rect>
  <rect width="1" height="1" x="22" y="20" fill="#E05718"></rect>
  <rect width="1" height="1" x="23" y="20" fill="#E05718"></rect>
  <rect width="1" height="1" x="24" y="20" fill="#E05718"></rect>
  <rect width="1" height="1" x="25" y="20" fill="#E05718"></rect>
  <rect width="1" height="1" x="26" y="20" fill="#E05718"></rect>
  <rect width="1" height="1" x="27" y="20" fill="#E05718"></rect>
  <rect width="1" height="1" x="28" y="20"></rect>
  <rect width="1" height="1" x="1" y="21"></rect>
  <rect width="1" height="1" x="2" y="21" fill="#FFF"></rect>
  <rect width="1" height="1" x="3" y="21" fill="#E05718"></rect>
  <rect width="1" height="1" x="4" y="21" fill="#E05718"></rect>
  <rect width="1" height="1" x="5" y="21" fill="#E05718"></rect>
  <rect width="1" height="1" x="6" y="21" fill="#E05718"></rect>
  <rect width="1" height="1" x="7" y="21" fill="#E05718"></rect>
  <rect width="1" height="1" x="8" y="21" fill="#E05718"></rect>
  <rect width="1" height="1" x="9" y="21" fill="#E05718"></rect>
  <rect width="1" height="1" x="10" y="21" fill="#E05718"></rect>
  <rect width="1" height="1" x="11" y="21" fill="#E05718"></rect>
  <rect width="1" height="1" x="12" y="21" fill="#E05718"></rect>
  <rect width="1" height="1" x="13" y="21" fill="#E05718"></rect>
  <rect width="1" height="1" x="14" y="21" fill="#E05718"></rect>
  <rect width="1" height="1" x="15" y="21" fill="#E05718"></rect>
  <rect width="1" height="1" x="16" y="21" fill="#E05718"></rect>
  <rect width="1" height="1" x="17" y="21" fill="#E05718"></rect>
  <rect width="1" height="1" x="18" y="21" fill="#E05718"></rect>
  <rect width="1" height="1" x="19" y="21" fill="#E05718"></rect>
  <rect width="1" height="1" x="20" y="21" fill="#E05718"></rect>
  <rect width="1" height="1" x="21" y="21" fill="#E05718"></rect>
  <rect width="1" height="1" x="22" y="21" fill="#E05718"></rect>
  <rect width="1" height="1" x="23" y="21" fill="#E05718"></rect>
  <rect width="1" height="1" x="24" y="21" fill="#E05718"></rect>
  <rect width="1" height="1" x="25" y="21" fill="#E05718"></rect>
  <rect width="1" height="1" x="26" y="21" fill="#E05718"></rect>
  <rect width="1" height="1" x="27" y="21" fill="#E05718"></rect>
  <rect width="1" height="1" x="28" y="21" fill="#FFF"></rect>
  <rect width="1" height="1" x="29" y="21"></rect>
  <rect width="1" height="1" y="22"></rect>
  <rect width="1" height="1" x="1" y="22" fill="#CCC"></rect>
  <rect width="1" height="1" x="2" y="22" fill="#FFF"></rect>
  <rect width="1" height="1" x="3" y="22" fill="#FFF"></rect>
  <rect width="1" height="1" x="4" y="22" fill="#FFF"></rect>
  <rect width="1" height="1" x="5" y="22" fill="#E05718"></rect>
  <rect width="1" height="1" x="6" y="22" fill="#E05718"></rect>
  <rect width="1" height="1" x="7" y="22" fill="#E05718"></rect>
  <rect width="1" height="1" x="8" y="22" fill="#E05718"></rect>
  <rect width="1" height="1" x="9" y="22" fill="#FFF"></rect>
  <rect width="1" height="1" x="10" y="22" fill="#FFF"></rect>
  <rect width="1" height="1" x="11" y="22" fill="#FFF"></rect>
  <rect width="1" height="1" x="12" y="22" fill="#B84B1A"></rect>
  <rect width="1" height="1" x="13" y="22" fill="#E05718"></rect>
  <rect width="1" height="1" x="14" y="22" fill="#E05718"></rect>
  <rect width="1" height="1" x="15" y="22" fill="#E05718"></rect>
  <rect width="1" height="1" x="16" y="22" fill="#E05718"></rect>
  <rect width="1" height="1" x="17" y="22" fill="#E05718"></rect>
  <rect width="1" height="1" x="18" y="22" fill="#B84B1A"></rect>
  <rect width="1" height="1" x="19" y="22" fill="#FFF"></rect>
  <rect width="1" height="1" x="20" y="22" fill="#FFF"></rect>
  <rect width="1" height="1" x="21" y="22" fill="#FFF"></rect>
  <rect width="1" height="1" x="22" y="22" fill="#E05718"></rect>
  <rect width="1" height="1" x="23" y="22" fill="#E05718"></rect>
  <rect width="1" height="1" x="24" y="22" fill="#E05718"></rect>
  <rect width="1" height="1" x="25" y="22" fill="#E05718"></rect>
  <rect width="1" height="1" x="26" y="22" fill="#FFF"></rect>
  <rect width="1" height="1" x="27" y="22" fill="#FFF"></rect>
  <rect width="1" height="1" x="28" y="22" fill="#FFF"></rect>
  <rect width="1" height="1" x="29" y="22" fill="#CCC"></rect>
  <rect width="1" height="1" x="30" y="22"></rect>
  <rect width="1" height="1" x="1" y="23"></rect>
  <rect width="1" height="1" x="2" y="23" fill="#FFF"></rect>
  <rect width="1" height="1" x="3" y="23" fill="#FFF"></rect>
  <rect width="1" height="1" x="4" y="23" fill="#FFF"></rect>
  <rect width="1" height="1" x="5" y="23" fill="#FFF"></rect>
  <rect width="1" height="1" x="6" y="23" fill="#FFF"></rect>
  <rect width="1" height="1" x="7" y="23" fill="#FFF"></rect>
  <rect width="1" height="1" x="8" y="23" fill="#FFF"></rect>
  <rect width="1" height="1" x="9" y="23" fill="#FFF"></rect>
  <rect width="1" height="1" x="10" y="23" fill="#FFF"></rect>
  <rect width="1" height="1" x="11" y="23" fill="#FFF"></rect>
  <rect width="1" height="1" x="12" y="23" fill="#CCC"></rect>
  <rect width="1" height="1" x="13" y="23" fill="#701D1D"></rect>
  <rect width="1" height="1" x="14" y="23" fill="#701D1D"></rect>
  <rect width="1" height="1" x="15" y="23" fill="#701D1D"></rect>
  <rect width="1" height="1" x="16" y="23" fill="#701D1D"></rect>
  <rect width="1" height="1" x="17" y="23" fill="#701D1D"></rect>
  <rect width="1" height="1" x="18" y="23" fill="#CCC"></rect>
  <rect width="1" height="1" x="19" y="23" fill="#FFF"></rect>
  <rect width="1" height="1" x="20" y="23" fill="#FFF"></rect>
  <rect width="1" height="1" x="21" y="23" fill="#FFF"></rect>
  <rect width="1" height="1" x="22" y="23" fill="#FFF"></rect>
  <rect width="1" height="1" x="23" y="23" fill="#FFF"></rect>
  <rect width="1" height="1" x="24" y="23" fill="#FFF"></rect>
  <rect width="1" height="1" x="25" y="23" fill="#FFF"></rect>
  <rect width="1" height="1" x="26" y="23" fill="#FFF"></rect>
  <rect width="1" height="1" x="27" y="23" fill="#FFF"></rect>
  <rect width="1" height="1" x="28" y="23" fill="#FFF"></rect>
  <rect width="1" height="1" x="29" y="23"></rect>
  <rect width="1" height="1" y="24"></rect>
  <rect width="1" height="1" x="1" y="24" fill="#CCC"></rect>
  <rect width="1" height="1" x="2" y="24" fill="#FFF"></rect>
  <rect width="1" height="1" x="3" y="24" fill="#FFF"></rect>
  <rect width="1" height="1" x="4" y="24" fill="#FFF"></rect>
  <rect width="1" height="1" x="5" y="24" fill="#FFF"></rect>
  <rect width="1" height="1" x="6" y="24" fill="#FFF"></rect>
  <rect width="1" height="1" x="7" y="24" fill="#FFF"></rect>
  <rect width="1" height="1" x="8" y="24" fill="#FFF"></rect>
  <rect width="1" height="1" x="9" y="24" fill="#FFF"></rect>
  <rect width="1" height="1" x="10" y="24" fill="#FFF"></rect>
  <rect width="1" height="1" x="11" y="24" fill="#FFF"></rect>
  <rect width="1" height="1" x="12" y="24" fill="#FFF"></rect>
  <rect width="1" height="1" x="13" y="24" fill="#CCC"></rect>
  <rect width="1" height="1" x="14" y="24" fill="#701D1D"></rect>
  <rect width="1" height="1" x="15" y="24" fill="#701D1D"></rect>
  <rect width="1" height="1" x="16" y="24" fill="#701D1D"></rect>
  <rect width="1" height="1" x="17" y="24" fill="#CCC"></rect>
  <rect width="1" height="1" x="18" y="24" fill="#FFF"></rect>
  <rect width="1" height="1" x="19" y="24" fill="#FFF"></rect>
  <rect width="1" height="1" x="20" y="24" fill="#FFF"></rect>
  <rect width="1" height="1" x="21" y="24" fill="#FFF"></rect>
  <rect width="1" height="1" x="22" y="24" fill="#FFF"></rect>
  <rect width="1" height="1" x="23" y="24" fill="#FFF"></rect>
  <rect width="1" height="1" x="24" y="24" fill="#FFF"></rect>
  <rect width="1" height="1" x="25" y="24" fill="#FFF"></rect>
  <rect width="1" height="1" x="26" y="24" fill="#FFF"></rect>
  <rect width="1" height="1" x="27" y="24" fill="#FFF"></rect>
  <rect width="1" height="1" x="28" y="24" fill="#FFF"></rect>
  <rect width="1" height="1" x="29" y="24" fill="#CCC"></rect>
  <rect width="1" height="1" x="30" y="24"></rect>
  <rect width="1" height="1" x="1" y="25"></rect>
  <rect width="1" height="1" x="2" y="25" fill="#CCC"></rect>
  <rect width="1" height="1" x="3" y="25" fill="#FFF"></rect>
  <rect width="1" height="1" x="4" y="25" fill="#FFF"></rect>
  <rect width="1" height="1" x="5" y="25" fill="#FFF"></rect>
  <rect width="1" height="1" x="6" y="25" fill="#FFF"></rect>
  <rect width="1" height="1" x="7" y="25" fill="#FFF"></rect>
  <rect width="1" height="1" x="8" y="25" fill="#FFF"></rect>
  <rect width="1" height="1" x="9" y="25" fill="#FFF"></rect>
  <rect width="1" height="1" x="10" y="25" fill="#FFF"></rect>
  <rect width="1" height="1" x="11" y="25" fill="#FFF"></rect>
  <rect width="1" height="1" x="12" y="25" fill="#FFF"></rect>
  <rect width="1" height="1" x="13" y="25" fill="#FFF"></rect>
  <rect width="1" height="1" x="14" y="25" fill="#CCC"></rect>
  <rect width="1" height="1" x="15" y="25" fill="#CCC"></rect>
  <rect width="1" height="1" x="16" y="25" fill="#CCC"></rect>
  <rect width="1" height="1" x="17" y="25" fill="#FFF"></rect>
  <rect width="1" height="1" x="18" y="25" fill="#FFF"></rect>
  <rect width="1" height="1" x="19" y="25" fill="#FFF"></rect>
  <rect width="1" height="1" x="20" y="25" fill="#FFF"></rect>
  <rect width="1" height="1" x="21" y="25" fill="#FFF"></rect>
  <rect width="1" height="1" x="22" y="25" fill="#FFF"></rect>
  <rect width="1" height="1" x="23" y="25" fill="#FFF"></rect>
  <rect width="1" height="1" x="24" y="25" fill="#FFF"></rect>
  <rect width="1" height="1" x="25" y="25" fill="#FFF"></rect>
  <rect width="1" height="1" x="26" y="25" fill="#FFF"></rect>
  <rect width="1" height="1" x="27" y="25" fill="#FFF"></rect>
  <rect width="1" height="1" x="28" y="25" fill="#CCC"></rect>
  <rect width="1" height="1" x="29" y="25"></rect>
  <rect width="1" height="1" x="2" y="26"></rect>
  <rect width="1" height="1" x="3" y="26" fill="#FFF"></rect>
  <rect width="1" height="1" x="4" y="26" fill="#FFF"></rect>
  <rect width="1" height="1" x="5" y="26" fill="#FFF"></rect>
  <rect width="1" height="1" x="6" y="26" fill="#FFF"></rect>
  <rect width="1" height="1" x="7" y="26" fill="#FFF"></rect>
  <rect width="1" height="1" x="8" y="26" fill="#FFF"></rect>
  <rect width="1" height="1" x="9" y="26" fill="#FFF"></rect>
  <rect width="1" height="1" x="10" y="26" fill="#FFF"></rect>
  <rect width="1" height="1" x="11" y="26" fill="#FFF"></rect>
  <rect width="1" height="1" x="12" y="26" fill="#FFF"></rect>
  <rect width="1" height="1" x="13" y="26" fill="#FFF"></rect>
  <rect width="1" height="1" x="14" y="26" fill="#FFF"></rect>
  <rect width="1" height="1" x="15" y="26" fill="#FFF"></rect>
  <rect width="1" height="1" x="16" y="26" fill="#FFF"></rect>
  <rect width="1" height="1" x="17" y="26" fill="#FFF"></rect>
  <rect width="1" height="1" x="18" y="26" fill="#FFF"></rect>
  <rect width="1" height="1" x="19" y="26" fill="#FFF"></rect>
  <rect width="1" height="1" x="20" y="26" fill="#FFF"></rect>
  <rect width="1" height="1" x="21" y="26" fill="#FFF"></rect>
  <rect width="1" height="1" x="22" y="26" fill="#FFF"></rect>
  <rect width="1" height="1" x="23" y="26" fill="#FFF"></rect>
  <rect width="1" height="1" x="24" y="26" fill="#FFF"></rect>
  <rect width="1" height="1" x="25" y="26" fill="#FFF"></rect>
  <rect width="1" height="1" x="26" y="26" fill="#FFF"></rect>
  <rect width="1" height="1" x="27" y="26" fill="#FFF"></rect>
  <rect width="1" height="1" x="28" y="26"></rect>
  <rect width="1" height="1" x="2" y="27"></rect>
  <rect width="1" height="1" x="3" y="27" fill="#CCC"></rect>
  <rect width="1" height="1" x="4" y="27" fill="#FFF"></rect>
  <rect width="1" height="1" x="5" y="27" fill="#FFF"></rect>
  <rect width="1" height="1" x="6" y="27" fill="#FFF"></rect>
  <rect width="1" height="1" x="7" y="27" fill="#FFF"></rect>
  <rect width="1" height="1" x="8" y="27" fill="#FFF"></rect>
  <rect width="1" height="1" x="9" y="27" fill="#FFF"></rect>
  <rect width="1" height="1" x="10" y="27" fill="#FFF"></rect>
  <rect width="1" height="1" x="11" y="27" fill="#FFF"></rect>
  <rect width="1" height="1" x="12" y="27" fill="#E05718"></rect>
  <rect width="1" height="1" x="13" y="27" fill="#FFF"></rect>
  <rect width="1" height="1" x="14" y="27" fill="#FFF"></rect>
  <rect width="1" height="1" x="15" y="27" fill="#FFF"></rect>
  <rect width="1" height="1" x="16" y="27" fill="#FFF"></rect>
  <rect width="1" height="1" x="17" y="27" fill="#FFF"></rect>
  <rect width="1" height="1" x="18" y="27" fill="#E05718"></rect>
  <rect width="1" height="1" x="19" y="27" fill="#FFF"></rect>
  <rect width="1" height="1" x="20" y="27" fill="#FFF"></rect>
  <rect width="1" height="1" x="21" y="27" fill="#FFF"></rect>
  <rect width="1" height="1" x="22" y="27" fill="#FFF"></rect>
  <rect width="1" height="1" x="23" y="27" fill="#FFF"></rect>
  <rect width="1" height="1" x="24" y="27" fill="#FFF"></rect>
  <rect width="1" height="1" x="25" y="27" fill="#FFF"></rect>
  <rect width="1" height="1" x="26" y="27" fill="#FFF"></rect>
  <rect width="1" height="1" x="27" y="27" fill="#CCC"></rect>
  <rect width="1" height="1" x="28" y="27"></rect>
  <rect width="1" height="1" x="3" y="28"></rect>
  <rect width="1" height="1" x="4" y="28" fill="#CCC"></rect>
  <rect width="1" height="1" x="5" y="28" fill="#FFF"></rect>
  <rect width="1" height="1" x="6" y="28" fill="#FFF"></rect>
  <rect width="1" height="1" x="7" y="28" fill="#FFF"></rect>
  <rect width="1" height="1" x="8" y="28" fill="#FFF"></rect>
  <rect width="1" height="1" x="9" y="28" fill="#FFF"></rect>
  <rect width="1" height="1" x="10" y="28" fill="#FFF"></rect>
  <rect width="1" height="1" x="11" y="28" fill="#FFF"></rect>
  <rect width="1" height="1" x="12" y="28" fill="#FFF"></rect>
  <rect width="1" height="1" x="13" y="28" fill="#E05718"></rect>
  <rect width="1" height="1" x="14" y="28" fill="#E05718"></rect>
  <rect width="1" height="1" x="15" y="28" fill="#E05718"></rect>
  <rect width="1" height="1" x="16" y="28" fill="#E05718"></rect>
  <rect width="1" height="1" x="17" y="28" fill="#E05718"></rect>
  <rect width="1" height="1" x="18" y="28" fill="#FFF"></rect>
  <rect width="1" height="1" x="19" y="28" fill="#FFF"></rect>
  <rect width="1" height="1" x="20" y="28" fill="#FFF"></rect>
  <rect width="1" height="1" x="21" y="28" fill="#FFF"></rect>
  <rect width="1" height="1" x="22" y="28" fill="#FFF"></rect>
  <rect width="1" height="1" x="23" y="28" fill="#FFF"></rect>
  <rect width="1" height="1" x="24" y="28" fill="#FFF"></rect>
  <rect width="1" height="1" x="25" y="28" fill="#FFF"></rect>
  <rect width="1" height="1" x="26" y="28" fill="#CCC"></rect>
  <rect width="1" height="1" x="27" y="28"></rect>
  <rect width="1" height="1" x="4" y="29"></rect>
  <rect width="1" height="1" x="5" y="29" fill="#CCC"></rect>
  <rect width="1" height="1" x="6" y="29" fill="#FFF"></rect>
  <rect width="1" height="1" x="7" y="29" fill="#FFF"></rect>
  <rect width="1" height="1" x="8" y="29" fill="#FFF"></rect>
  <rect width="1" height="1" x="9" y="29" fill="#FFF"></rect>
  <rect width="1" height="1" x="10" y="29" fill="#FFF"></rect>
  <rect width="1" height="1" x="11" y="29" fill="#FFF"></rect>
  <rect width="1" height="1" x="12" y="29" fill="#FFF"></rect>
  <rect width="1" height="1" x="13" y="29" fill="#FFF"></rect>
  <rect width="1" height="1" x="14" y="29" fill="#FFF"></rect>
  <rect width="1" height="1" x="15" y="29" fill="#FFF"></rect>
  <rect width="1" height="1" x="16" y="29" fill="#FFF"></rect>
  <rect width="1" height="1" x="17" y="29" fill="#FFF"></rect>
  <rect width="1" height="1" x="18" y="29" fill="#FFF"></rect>
  <rect width="1" height="1" x="19" y="29" fill="#FFF"></rect>
  <rect width="1" height="1" x="20" y="29" fill="#FFF"></rect>
  <rect width="1" height="1" x="21" y="29" fill="#FFF"></rect>
  <rect width="1" height="1" x="22" y="29" fill="#FFF"></rect>
  <rect width="1" height="1" x="23" y="29" fill="#FFF"></rect>
  <rect width="1" height="1" x="24" y="29" fill="#FFF"></rect>
  <rect width="1" height="1" x="25" y="29" fill="#CCC"></rect>
  <rect width="1" height="1" x="26" y="29"></rect>
  <rect width="1" height="1" x="5" y="30"></rect>
  <rect width="1" height="1" x="6" y="30" fill="#CCC"></rect>
  <rect width="1" height="1" x="7" y="30" fill="#CCC"></rect>
  <rect width="1" height="1" x="8" y="30" fill="#CCC"></rect>
  <rect width="1" height="1" x="9" y="30" fill="#CCC"></rect>
  <rect width="1" height="1" x="10" y="30" fill="#CCC"></rect>
  <rect width="1" height="1" x="11" y="30" fill="#CCC"></rect>
  <rect width="1" height="1" x="12" y="30" fill="#CCC"></rect>
  <rect width="1" height="1" x="13" y="30" fill="#CCC"></rect>
  <rect width="1" height="1" x="14" y="30" fill="#CCC"></rect>
  <rect width="1" height="1" x="15" y="30" fill="#CCC"></rect>
  <rect width="1" height="1" x="16" y="30" fill="#CCC"></rect>
  <rect width="1" height="1" x="17" y="30" fill="#CCC"></rect>
  <rect width="1" height="1" x="18" y="30" fill="#CCC"></rect>
  <rect width="1" height="1" x="19" y="30" fill="#CCC"></rect>
  <rect width="1" height="1" x="20" y="30" fill="#CCC"></rect>
  <rect width="1" height="1" x="21" y="30" fill="#CCC"></rect>
  <rect width="1" height="1" x="22" y="30" fill="#CCC"></rect>
  <rect width="1" height="1" x="23" y="30" fill="#CCC"></rect>
  <rect width="1" height="1" x="24" y="30" fill="#CCC"></rect>
  <rect width="1" height="1" x="25" y="30"></rect>
  <rect width="1" height="1" x="6" y="31"></rect>
  <rect width="1" height="1" x="7" y="31"></rect>
  <rect width="1" height="1" x="8" y="31"></rect>
  <rect width="1" height="1" x="9" y="31"></rect>
  <rect width="1" height="1" x="10" y="31"></rect>
  <rect width="1" height="1" x="11" y="31"></rect>
  <rect width="1" height="1" x="12" y="31"></rect>
  <rect width="1" height="1" x="13" y="31"></rect>
  <rect width="1" height="1" x="14" y="31"></rect>
  <rect width="1" height="1" x="15" y="31"></rect>
  <rect width="1" height="1" x="16" y="31"></rect>
  <rect width="1" height="1" x="17" y="31"></rect>
  <rect width="1" height="1" x="18" y="31"></rect>
  <rect width="1" height="1" x="19" y="31"></rect>
  <rect width="1" height="1" x="20" y="31"></rect>
  <rect width="1" height="1" x="21" y="31"></rect>
  <rect width="1" height="1" x="22" y="31"></rect>
  <rect width="1" height="1" x="23" y="31"></rect>
  <rect width="1" height="1" x="24" y="31"></rect>
</svg>
