<svg xmlns="http://www.w3.org/2000/svg" width="32" height="32" shape-rendering="crispEdges" id="rabbit-head">
  <rect width="1" height="1" x="6"></rect>
  <rect width="1" height="1" x="7"></rect>
  <rect width="1" height="1" x="8"></rect>
  <rect width="1" height="1" x="9"></rect>
  <rect width="1" height="1" x="10"></rect>
  <rect width="1" height="1" x="5" y="1"></rect>
  <rect width="1" height="1" x="6" y="1" fill="#FFF"></rect>
  <rect width="1" height="1" x="7" y="1" fill="#FFF"></rect>
  <rect width="1" height="1" x="8" y="1" fill="#FFF"></rect>
  <rect width="1" height="1" x="9" y="1" fill="#FFE2E6"></rect>
  <rect width="1" height="1" x="10" y="1" fill="#FFE2E6"></rect>
  <rect width="1" height="1" x="11" y="1"></rect>
  <rect width="1" height="1" x="25" y="1"></rect>
  <rect width="1" height="1" x="26" y="1"></rect>
  <rect width="1" height="1" x="27" y="1"></rect>
  <rect width="1" height="1" x="28" y="1"></rect>
  <rect width="1" height="1" x="4" y="2"></rect>
  <rect width="1" height="1" x="5" y="2" fill="#FFF"></rect>
  <rect width="1" height="1" x="6" y="2" fill="#FFE2E6"></rect>
  <rect width="1" height="1" x="7" y="2" fill="#FFDFE1"></rect>
  <rect width="1" height="1" x="8" y="2" fill="#FFE2E6"></rect>
  <rect width="1" height="1" x="9" y="2" fill="#FFE2E6"></rect>
  <rect width="1" height="1" x="10" y="2" fill="#FFE2E6"></rect>
  <rect width="1" height="1" x="11" y="2" fill="#FFE2E6"></rect>
  <rect width="1" height="1" x="12" y="2"></rect>
  <rect width="1" height="1" x="24" y="2"></rect>
  <rect width="1" height="1" x="25" y="2" fill="#FFF"></rect>
  <rect width="1" height="1" x="26" y="2" fill="#FFE2E6"></rect>
  <rect width="1" height="1" x="27" y="2" fill="#FFE2E6"></rect>
  <rect width="1" height="1" x="28" y="2" fill="#FFE2E6"></rect>
  <rect width="1" height="1" x="29" y="2"></rect>
  <rect width="1" height="1" x="30" y="2"></rect>
  <rect width="1" height="1" x="4" y="3"></rect>
  <rect width="1" height="1" x="5" y="3" fill="#FFE2E6"></rect>
  <rect width="1" height="1" x="6" y="3" fill="#FFE2E6"></rect>
  <rect width="1" height="1" x="7" y="3" fill="#FFE2E6"></rect>
  <rect width="1" height="1" x="8" y="3" fill="#FFE2E6"></rect>
  <rect width="1" height="1" x="9" y="3" fill="#EF7E85"></rect>
  <rect width="1" height="1" x="10" y="3" fill="#EF7E85"></rect>
  <rect width="1" height="1" x="11" y="3" fill="#EF7E85"></rect>
  <rect width="1" height="1" x="12" y="3"></rect>
  <rect width="1" height="1" x="23" y="3"></rect>
  <rect width="1" height="1" x="24" y="3" fill="#FFF"></rect>
  <rect width="1" height="1" x="25" y="3" fill="#FCE2E3"></rect>
  <rect width="1" height="1" x="26" y="3" fill="#FFE2E6"></rect>
  <rect width="1" height="1" x="27" y="3" fill="#FFE2E6"></rect>
  <rect width="1" height="1" x="28" y="3" fill="#EF7E85"></rect>
  <rect width="1" height="1" x="29" y="3" fill="#EF7E85"></rect>
  <rect width="1" height="1" x="30" y="3" fill="#EF7E85"></rect>
  <rect width="1" height="1" x="31" y="3"></rect>
  <rect width="1" height="1" x="3" y="4"></rect>
  <rect width="1" height="1" x="4" y="4" fill="#FFF"></rect>
  <rect width="1" height="1" x="5" y="4" fill="#FFE2E6"></rect>
  <rect width="1" height="1" x="6" y="4" fill="#FFE2E6"></rect>
  <rect width="1" height="1" x="7" y="4" fill="#FFE2E6"></rect>
  <rect width="1" height="1" x="8" y="4" fill="#EF7E85"></rect>
  <rect width="1" height="1" x="9" y="4" fill="#F7A9AE"></rect>
  <rect width="1" height="1" x="10" y="4" fill="#EF7E85"></rect>
  <rect width="1" height="1" x="11" y="4" fill="#F7A9AE"></rect>
  <rect width="1" height="1" x="12" y="4"></rect>
  <rect width="1" height="1" x="23" y="4"></rect>
  <rect width="1" height="1" x="24" y="4" fill="#FFE2E6"></rect>
  <rect width="1" height="1" x="25" y="4" fill="#FFE2E6"></rect>
  <rect width="1" height="1" x="26" y="4" fill="#FFE2E6"></rect>
  <rect width="1" height="1" x="27" y="4" fill="#EF7E85"></rect>
  <rect width="1" height="1" x="28" y="4" fill="#F7A9AE"></rect>
  <rect width="1" height="1" x="29" y="4" fill="#EF7E85"></rect>
  <rect width="1" height="1" x="30" y="4" fill="#F7A9AE"></rect>
  <rect width="1" height="1" x="31" y="4"></rect>
  <rect width="1" height="1" x="3" y="5"></rect>
  <rect width="1" height="1" x="4" y="5" fill="#FFE2E6"></rect>
  <rect width="1" height="1" x="5" y="5" fill="#FFE2E6"></rect>
  <rect width="1" height="1" x="6" y="5" fill="#FFE2E6"></rect>
  <rect width="1" height="1" x="7" y="5" fill="#EF7E85"></rect>
  <rect width="1" height="1" x="8" y="5" fill="#F7A9AE"></rect>
  <rect width="1" height="1" x="9" y="5" fill="#EF7E85"></rect>
  <rect width="1" height="1" x="10" y="5" fill="#F7A9AE"></rect>
  <rect width="1" height="1" x="11" y="5"></rect>
  <rect width="1" height="1" x="23" y="5"></rect>
  <rect width="1" height="1" x="24" y="5" fill="#FFE2E6"></rect>
  <rect width="1" height="1" x="25" y="5" fill="#FFE2E6"></rect>
  <rect width="1" height="1" x="26" y="5" fill="#EF7E85"></rect>
  <rect width="1" height="1" x="27" y="5" fill="#F7A9AE"></rect>
  <rect width="1" height="1" x="28" y="5" fill="#EF7E85"></rect>
  <rect width="1" height="1" x="29" y="5" fill="#F7A9AE"></rect>
  <rect width="1" height="1" x="30" y="5"></rect>
  <rect width="1" height="1" x="3" y="6"></rect>
  <rect width="1" height="1" x="4" y="6" fill="#FDDADC"></rect>
  <rect width="1" height="1" x="5" y="6" fill="#FFE2E6"></rect>
  <rect width="1" height="1" x="6" y="6" fill="#FFE2E6"></rect>
  <rect width="1" height="1" x="7" y="6" fill="#EF7E85"></rect>
  <rect width="1" height="1" x="8" y="6" fill="#EF7E85"></rect>
  <rect width="1" height="1" x="9" y="6" fill="#F7A9AE"></rect>
  <rect width="1" height="1" x="10" y="6"></rect>
  <rect width="1" height="1" x="21" y="6" fill="#BFBFBF"></rect>
  <rect width="1" height="1" x="22" y="6"></rect>
  <rect width="1" height="1" x="23" y="6" fill="#FFF"></rect>
  <rect width="1" height="1" x="24" y="6" fill="#FFE2E6"></rect>
  <rect width="1" height="1" x="25" y="6" fill="#EF7E85"></rect>
  <rect width="1" height="1" x="26" y="6" fill="#F7A9AE"></rect>
  <rect width="1" height="1" x="27" y="6" fill="#EF7E85"></rect>
  <rect width="1" height="1" x="28" y="6" fill="#F7A9AE"></rect>
  <rect width="1" height="1" x="29" y="6"></rect>
  <rect width="1" height="1" x="3" y="7"></rect>
  <rect width="1" height="1" x="4" y="7" fill="#FFE2E6"></rect>
  <rect width="1" height="1" x="5" y="7" fill="#FFE2E6"></rect>
  <rect width="1" height="1" x="6" y="7" fill="#EF7E85"></rect>
  <rect width="1" height="1" x="7" y="7" fill="#F7A9AE"></rect>
  <rect width="1" height="1" x="8" y="7" fill="#F7A9AE"></rect>
  <rect width="1" height="1" x="9" y="7"></rect>
  <rect width="1" height="1" x="22" y="7"></rect>
  <rect width="1" height="1" x="23" y="7" fill="#FFF"></rect>
  <rect width="1" height="1" x="24" y="7" fill="#FFE2E6"></rect>
  <rect width="1" height="1" x="25" y="7" fill="#EF7E85"></rect>
  <rect width="1" height="1" x="26" y="7" fill="#EF7E85"></rect>
  <rect width="1" height="1" x="27" y="7" fill="#F7A9AE"></rect>
  <rect width="1" height="1" x="28" y="7"></rect>
  <rect width="1" height="1" x="29" y="7" fill="#BFBFBF"></rect>
  <rect width="1" height="1" x="3" y="8"></rect>
  <rect width="1" height="1" x="4" y="8" fill="#FFE2E6"></rect>
  <rect width="1" height="1" x="5" y="8" fill="#FFE2E6"></rect>
  <rect width="1" height="1" x="6" y="8" fill="#EF7E85"></rect>
  <rect width="1" height="1" x="7" y="8" fill="#F7A9AE"></rect>
  <rect width="1" height="1" x="8" y="8"></rect>
  <rect width="1" height="1" x="22" y="8"></rect>
  <rect width="1" height="1" x="23" y="8" fill="#FFF"></rect>
  <rect width="1" height="1" x="24" y="8" fill="#FFE2E6"></rect>
  <rect width="1" height="1" x="25" y="8" fill="#EF7E85"></rect>
  <rect width="1" height="1" x="26" y="8" fill="#F7A9AE"></rect>
  <rect width="1" height="1" x="27" y="8"></rect>
  <rect width="1" height="1" x="3" y="9"></rect>
  <rect width="1" height="1" x="4" y="9" fill="#FFE4E2"></rect>
  <rect width="1" height="1" x="5" y="9" fill="#1E4A78"></rect>
  <rect width="1" height="1" x="6" y="9" fill="#1E4A78"></rect>
  <rect width="1" height="1" x="7" y="9" fill="#1E4A78"></rect>
  <rect width="1" height="1" x="8" y="9"></rect>
  <rect width="1" height="1" x="10" y="9"></rect>
  <rect width="1" height="1" x="11" y="9"></rect>
  <rect width="1" height="1" x="12" y="9"></rect>
  <rect width="1" height="1" x="13" y="9"></rect>
  <rect width="1" height="1" x="14" y="9"></rect>
  <rect width="1" height="1" x="15" y="9"></rect>
  <rect width="1" height="1" x="16" y="9"></rect>
  <rect width="1" height="1" x="17" y="9"></rect>
  <rect width="1" height="1" x="18" y="9"></rect>
  <rect width="1" height="1" x="19" y="9"></rect>
  <rect width="1" height="1" x="20" y="9"></rect>
  <rect width="1" height="1" x="22" y="9"></rect>
  <rect width="1" height="1" x="23" y="9" fill="#FFF"></rect>
  <rect width="1" height="1" x="24" y="9" fill="#FFE2E6"></rect>
  <rect width="1" height="1" x="25" y="9" fill="#F7A9AE"></rect>
  <rect width="1" height="1" x="26" y="9" fill="#F7A9AE"></rect>
  <rect width="1" height="1" x="27" y="9"></rect>
  <rect width="1" height="1" x="2" y="10"></rect>
  <rect width="1" height="1" x="3" y="10" fill="#1E4A78"></rect>
  <rect width="1" height="1" x="4" y="10" fill="#1E4A78"></rect>
  <rect width="1" height="1" x="5" y="10" fill="#3272B3"></rect>
  <rect width="1" height="1" x="6" y="10" fill="#3272B3"></rect>
  <rect width="1" height="1" x="7" y="10" fill="#1CA4E1"></rect>
  <rect width="1" height="1" x="8" y="10" fill="#69C5EF"></rect>
  <rect width="1" height="1" x="9" y="10"></rect>
  <rect width="1" height="1" x="10" y="10" fill="#ED9AA0"></rect>
  <rect width="1" height="1" x="11" y="10" fill="#FFE2E6"></rect>
  <rect width="1" height="1" x="12" y="10" fill="#FEDEEA"></rect>
  <rect width="1" height="1" x="13" y="10" fill="#FEE0EC"></rect>
  <rect width="1" height="1" x="14" y="10" fill="#FDE3EE"></rect>
  <rect width="1" height="1" x="15" y="10" fill="#F8E7E7"></rect>
  <rect width="1" height="1" x="16" y="10" fill="#F8E6E7"></rect>
  <rect width="1" height="1" x="17" y="10" fill="#FBE4E8"></rect>
  <rect width="1" height="1" x="18" y="10" fill="#FEE4E5"></rect>
  <rect width="1" height="1" x="19" y="10" fill="#FADAE1"></rect>
  <rect width="1" height="1" x="20" y="10" fill="#FFE2E6"></rect>
  <rect width="1" height="1" x="21" y="10"></rect>
  <rect width="1" height="1" x="22" y="10" fill="#FDE0DF"></rect>
  <rect width="1" height="1" x="23" y="10" fill="#FEE3E4"></rect>
  <rect width="1" height="1" x="24" y="10" fill="#FFE2E6"></rect>
  <rect width="1" height="1" x="25" y="10" fill="#FFE2E6"></rect>
  <rect width="1" height="1" x="26" y="10"></rect>
  <rect width="1" height="1" x="1" y="11"></rect>
  <rect width="1" height="1" x="2" y="11" fill="#3272B3"></rect>
  <rect width="1" height="1" x="3" y="11" fill="#3272B3"></rect>
  <rect width="1" height="1" x="4" y="11" fill="#255C95"></rect>
  <rect width="1" height="1" x="5" y="11" fill="#255C95"></rect>
  <rect width="1" height="1" x="6" y="11" fill="#1CA4E1"></rect>
  <rect width="1" height="1" x="7" y="11" fill="#1CA4E1"></rect>
  <rect width="1" height="1" x="8" y="11" fill="#1CA4E1"></rect>
  <rect width="1" height="1" x="9" y="11" fill="#1E4A78"></rect>
  <rect width="1" height="1" x="10" y="11" fill="#ED9AA0"></rect>
  <rect width="1" height="1" x="11" y="11" fill="#FFE2E6"></rect>
  <rect width="1" height="1" x="12" y="11" fill="#FBE5E7"></rect>
  <rect width="1" height="1" x="13" y="11" fill="#FBE5E8"></rect>
  <rect width="1" height="1" x="14" y="11" fill="#FAE5E6"></rect>
  <rect width="1" height="1" x="15" y="11" fill="#FEE2E5"></rect>
  <rect width="1" height="1" x="16" y="11" fill="#FFE1E3"></rect>
  <rect width="1" height="1" x="17" y="11" fill="#FEE2E2"></rect>
  <rect width="1" height="1" x="18" y="11" fill="#FEE2E4"></rect>
  <rect width="1" height="1" x="19" y="11" fill="#FCE3E4"></rect>
  <rect width="1" height="1" x="20" y="11" fill="#FCE2EC"></rect>
  <rect width="1" height="1" x="21" y="11" fill="#FDE1F0"></rect>
  <rect width="1" height="1" x="22" y="11" fill="#FDE0DF"></rect>
  <rect width="1" height="1" x="23" y="11" fill="#FDE2E1"></rect>
  <rect width="1" height="1" x="24" y="11" fill="#FFE2E6"></rect>
  <rect width="1" height="1" x="25" y="11" fill="#FFE2E6"></rect>
  <rect width="1" height="1" x="26" y="11"></rect>
  <rect width="1" height="1" y="12"></rect>
  <rect width="1" height="1" x="1" y="12" fill="#1CA4E1"></rect>
  <rect width="1" height="1" x="2" y="12" fill="#1CA4E1"></rect>
  <rect width="1" height="1" x="3" y="12" fill="#1CA4E1"></rect>
  <rect width="1" height="1" x="4" y="12" fill="#255C95"></rect>
  <rect width="1" height="1" x="5" y="12" fill="#3272B3"></rect>
  <rect width="1" height="1" x="6" y="12" fill="#1E4A78"></rect>
  <rect width="1" height="1" x="7" y="12" fill="#1E4A78"></rect>
  <rect width="1" height="1" x="8" y="12" fill="#1E4A78"></rect>
  <rect width="1" height="1" x="9" y="12" fill="#ED9AA0"></rect>
  <rect width="1" height="1" x="10" y="12" fill="#FFE2E6"></rect>
  <rect width="1" height="1" x="11" y="12" fill="#FBDEE3"></rect>
  <rect width="1" height="1" x="12" y="12" fill="#FCE3E6"></rect>
  <rect width="1" height="1" x="13" y="12" fill="#FEE3E7"></rect>
  <rect width="1" height="1" x="14" y="12" fill="#FEE4E7"></rect>
  <rect width="1" height="1" x="15" y="12" fill="#FFE2E6"></rect>
  <rect width="1" height="1" x="16" y="12" fill="#FFE3E7"></rect>
  <rect width="1" height="1" x="17" y="12" fill="#FFE3E6"></rect>
  <rect width="1" height="1" x="18" y="12" fill="#FFE3E6"></rect>
  <rect width="1" height="1" x="19" y="12" fill="#FEE3E6"></rect>
  <rect width="1" height="1" x="20" y="12" fill="#FEE3E7"></rect>
  <rect width="1" height="1" x="21" y="12" fill="#FFE3EA"></rect>
  <rect width="1" height="1" x="22" y="12" fill="#FEE2E5"></rect>
  <rect width="1" height="1" x="23" y="12" fill="#FDE2E1"></rect>
  <rect width="1" height="1" x="24" y="12" fill="#FEDDE3"></rect>
  <rect width="1" height="1" x="25" y="12" fill="#FFE2E6"></rect>
  <rect width="1" height="1" x="26" y="12"></rect>
  <rect width="1" height="1" y="13"></rect>
  <rect width="1" height="1" x="1" y="13" fill="#69C5EF"></rect>
  <rect width="1" height="1" x="2" y="13" fill="#1CA4E1"></rect>
  <rect width="1" height="1" x="3" y="13" fill="#1CA4E1"></rect>
  <rect width="1" height="1" x="4" y="13" fill="#3272B3"></rect>
  <rect width="1" height="1" x="5" y="13" fill="#1E4A78"></rect>
  <rect width="1" height="1" x="6" y="13" fill="#ED9AA0"></rect>
  <rect width="1" height="1" x="7" y="13" fill="#ED9AA0"></rect>
  <rect width="1" height="1" x="8" y="13" fill="#ED9AA0"></rect>
  <rect width="1" height="1" x="9" y="13" fill="#FFE2E6"></rect>
  <rect width="1" height="1" x="10" y="13" fill="#FFE2E6"></rect>
  <rect width="1" height="1" x="11" y="13" fill="#FDE4E7"></rect>
  <rect width="1" height="1" x="12" y="13" fill="#FDE4E7"></rect>
  <rect width="1" height="1" x="13" y="13" fill="#FFE2E6"></rect>
  <rect width="1" height="1" x="14" y="13" fill="#FFE3E7"></rect>
  <rect width="1" height="1" x="15" y="13" fill="#FFE3E7"></rect>
  <rect width="1" height="1" x="16" y="13" fill="#FFE3E7"></rect>
  <rect width="1" height="1" x="17" y="13" fill="#FFE3E7"></rect>
  <rect width="1" height="1" x="18" y="13" fill="#FFE3E7"></rect>
  <rect width="1" height="1" x="19" y="13" fill="#FFE3E7"></rect>
  <rect width="1" height="1" x="20" y="13" fill="#FFE3E7"></rect>
  <rect width="1" height="1" x="21" y="13" fill="#FFE3E7"></rect>
  <rect width="1" height="1" x="22" y="13" fill="#FFE3E7"></rect>
  <rect width="1" height="1" x="23" y="13" fill="#FDE2E4"></rect>
  <rect width="1" height="1" x="24" y="13" fill="#FDE2E6"></rect>
  <rect width="1" height="1" x="25" y="13" fill="#FFE2E6"></rect>
  <rect width="1" height="1" x="26" y="13" fill="#FFF"></rect>
  <rect width="1" height="1" x="27" y="13"></rect>
  <rect width="1" height="1" y="14"></rect>
  <rect width="1" height="1" x="1" y="14" fill="#69C5EF"></rect>
  <rect width="1" height="1" x="2" y="14" fill="#69C5EF"></rect>
  <rect width="1" height="1" x="3" y="14" fill="#1CA4E1"></rect>
  <rect width="1" height="1" x="4" y="14" fill="#1E4A78"></rect>
  <rect width="1" height="1" x="5" y="14" fill="#ED9AA0"></rect>
  <rect width="1" height="1" x="6" y="14" fill="#FFE2E6"></rect>
  <rect width="1" height="1" x="7" y="14" fill="#FFE2E6"></rect>
  <rect width="1" height="1" x="8" y="14" fill="#FFE2E6"></rect>
  <rect width="1" height="1" x="9" y="14" fill="#FFE2E6"></rect>
  <rect width="1" height="1" x="10" y="14" fill="#FCE3E6"></rect>
  <rect width="1" height="1" x="11" y="14" fill="#FDE4E7"></rect>
  <rect width="1" height="1" x="12" y="14" fill="#FEE4E8"></rect>
  <rect width="1" height="1" x="13" y="14" fill="#FFE3E7"></rect>
  <rect width="1" height="1" x="14" y="14" fill="#FFE3E7"></rect>
  <rect width="1" height="1" x="15" y="14" fill="#FFE3E7"></rect>
  <rect width="1" height="1" x="16" y="14" fill="#FFE3E7"></rect>
  <rect width="1" height="1" x="17" y="14" fill="#FFE3E7"></rect>
  <rect width="1" height="1" x="18" y="14" fill="#FFE3E7"></rect>
  <rect width="1" height="1" x="19" y="14" fill="#FFE3E7"></rect>
  <rect width="1" height="1" x="20" y="14" fill="#FFE3E7"></rect>
  <rect width="1" height="1" x="21" y="14" fill="#FFE3E7"></rect>
  <rect width="1" height="1" x="22" y="14" fill="#FFE3E7"></rect>
  <rect width="1" height="1" x="23" y="14" fill="#FEE2E7"></rect>
  <rect width="1" height="1" x="24" y="14" fill="#FCE2E6"></rect>
  <rect width="1" height="1" x="25" y="14" fill="#FFE2E6"></rect>
  <rect width="1" height="1" x="26" y="14" fill="#FFE3E7"></rect>
  <rect width="1" height="1" x="27" y="14" fill="#FFF"></rect>
  <rect width="1" height="1" x="28" y="14"></rect>
  <rect width="1" height="1" x="1" y="15"></rect>
  <rect width="1" height="1" x="2" y="15" fill="#1E4A78"></rect>
  <rect width="1" height="1" x="3" y="15" fill="#1E4A78"></rect>
  <rect width="1" height="1" x="4" y="15" fill="#ED9AA0"></rect>
  <rect width="1" height="1" x="5" y="15" fill="#FAD9E0"></rect>
  <rect width="1" height="1" x="6" y="15" fill="#FCE3E6"></rect>
  <rect width="1" height="1" x="7" y="15" fill="#FCE3E6"></rect>
  <rect width="1" height="1" x="8" y="15" fill="#FCE3E6"></rect>
  <rect width="1" height="1" x="9" y="15" fill="#FCE3E6"></rect>
  <rect width="1" height="1" x="10" y="15" fill="#FCE3E6"></rect>
  <rect width="1" height="1" x="11" y="15" fill="#FDE3E6"></rect>
  <rect width="1" height="1" x="12" y="15" fill="#FFE3E7"></rect>
  <rect width="1" height="1" x="13" y="15" fill="#FFE3E7"></rect>
  <rect width="1" height="1" x="14" y="15" fill="#FFE3E7"></rect>
  <rect width="1" height="1" x="15" y="15" fill="#FFE3E7"></rect>
  <rect width="1" height="1" x="16" y="15" fill="#FFE3E7"></rect>
  <rect width="1" height="1" x="17" y="15" fill="#FFE3E7"></rect>
  <rect width="1" height="1" x="18" y="15" fill="#FFE3E7"></rect>
  <rect width="1" height="1" x="19" y="15" fill="#FFE3E7"></rect>
  <rect width="1" height="1" x="20" y="15" fill="#FFE3E7"></rect>
  <rect width="1" height="1" x="21" y="15" fill="#FFE3E7"></rect>
  <rect width="1" height="1" x="22" y="15" fill="#FFE3E7"></rect>
  <rect width="1" height="1" x="23" y="15" fill="#FFE2E5"></rect>
  <rect width="1" height="1" x="24" y="15" fill="#FEE3E7"></rect>
  <rect width="1" height="1" x="25" y="15" fill="#FEE2E7"></rect>
  <rect width="1" height="1" x="26" y="15" fill="#FFE2E6"></rect>
  <rect width="1" height="1" x="27" y="15" fill="#FFF"></rect>
  <rect width="1" height="1" x="28" y="15"></rect>
  <rect width="1" height="1" y="16"></rect>
  <rect width="1" height="1" x="1" y="16" fill="#ED9AA0"></rect>
  <rect width="1" height="1" x="2" y="16" fill="#ED9AA0"></rect>
  <rect width="1" height="1" x="3" y="16" fill="#ED9AA0"></rect>
  <rect width="1" height="1" x="4" y="16" fill="#FFE2E6"></rect>
  <rect width="1" height="1" x="5" y="16" fill="#FFE2E6"></rect>
  <rect width="1" height="1" x="6" y="16" fill="#FDE4E8"></rect>
  <rect width="1" height="1" x="7" y="16" fill="#FEE4E7"></rect>
  <rect width="1" height="1" x="8" y="16" fill="#FEE3E6"></rect>
  <rect width="1" height="1" x="9" y="16" fill="#FEE3E7"></rect>
  <rect width="1" height="1" x="10" y="16" fill="#FFE3E7"></rect>
  <rect width="1" height="1" x="11" y="16" fill="#FFE3E7"></rect>
  <rect width="1" height="1" x="12" y="16" fill="#FFE3E7"></rect>
  <rect width="1" height="1" x="13" y="16" fill="#FFE3E7"></rect>
  <rect width="1" height="1" x="14" y="16" fill="#FFE3E7"></rect>
  <rect width="1" height="1" x="15" y="16" fill="#FFE3E7"></rect>
  <rect width="1" height="1" x="16" y="16" fill="#FFE3E7"></rect>
  <rect width="1" height="1" x="17" y="16" fill="#FFE3E7"></rect>
  <rect width="1" height="1" x="18" y="16" fill="#FFE3E7"></rect>
  <rect width="1" height="1" x="19" y="16" fill="#FFE3E7"></rect>
  <rect width="1" height="1" x="20" y="16" fill="#FFE3E7"></rect>
  <rect width="1" height="1" x="21" y="16" fill="#FFE3E7"></rect>
  <rect width="1" height="1" x="22" y="16" fill="#FFE3E7"></rect>
  <rect width="1" height="1" x="23" y="16" fill="#FFE3E7"></rect>
  <rect width="1" height="1" x="24" y="16" fill="#FFE3E7"></rect>
  <rect width="1" height="1" x="25" y="16" fill="#FFE3E7"></rect>
  <rect width="1" height="1" x="26" y="16" fill="#F6D9DE"></rect>
  <rect width="1" height="1" x="27" y="16" fill="#FFF"></rect>
  <rect width="1" height="1" x="28" y="16"></rect>
  <rect width="1" height="1" y="17"></rect>
  <rect width="1" height="1" x="1" y="17" fill="#FFE2E6"></rect>
  <rect width="1" height="1" x="2" y="17" fill="#FFE2E6"></rect>
  <rect width="1" height="1" x="3" y="17" fill="#FEDEE5"></rect>
  <rect width="1" height="1" x="4" y="17" fill="#FEE1E6"></rect>
  <rect width="1" height="1" x="5" y="17" fill="#FDE3E6"></rect>
  <rect width="1" height="1" x="6" y="17" fill="#FFE3E7"></rect>
  <rect width="1" height="1" x="7" y="17" fill="#FFE3E7"></rect>
  <rect width="1" height="1" x="8" y="17"></rect>
  <rect width="1" height="1" x="9" y="17"></rect>
  <rect width="1" height="1" x="10" y="17" fill="#FFE3E7"></rect>
  <rect width="1" height="1" x="11" y="17" fill="#FFE3E7"></rect>
  <rect width="1" height="1" x="12" y="17" fill="#FFE3E7"></rect>
  <rect width="1" height="1" x="13" y="17" fill="#FFE3E7"></rect>
  <rect width="1" height="1" x="14" y="17" fill="#FFE3E7"></rect>
  <rect width="1" height="1" x="15" y="17" fill="#FFE3E7"></rect>
  <rect width="1" height="1" x="16" y="17" fill="#FFE3E7"></rect>
  <rect width="1" height="1" x="17" y="17" fill="#FFE3E7"></rect>
  <rect width="1" height="1" x="18" y="17" fill="#FFE3E7"></rect>
  <rect width="1" height="1" x="19" y="17"></rect>
  <rect width="1" height="1" x="20" y="17"></rect>
  <rect width="1" height="1" x="21" y="17" fill="#FFE3E7"></rect>
  <rect width="1" height="1" x="22" y="17" fill="#FFE3E7"></rect>
  <rect width="1" height="1" x="23" y="17" fill="#FFE3E7"></rect>
  <rect width="1" height="1" x="24" y="17" fill="#FFE3E7"></rect>
  <rect width="1" height="1" x="25" y="17" fill="#FFE2E6"></rect>
  <rect width="1" height="1" x="26" y="17" fill="#FFE1E5"></rect>
  <rect width="1" height="1" x="27" y="17" fill="#FFF"></rect>
  <rect width="1" height="1" x="28" y="17"></rect>
  <rect width="1" height="1" y="18"></rect>
  <rect width="1" height="1" x="1" y="18" fill="#FFE2E6"></rect>
  <rect width="1" height="1" x="2" y="18" fill="#FFE2E6"></rect>
  <rect width="1" height="1" x="3" y="18" fill="#FFDCF0"></rect>
  <rect width="1" height="1" x="4" y="18" fill="#FDE3EB"></rect>
  <rect width="1" height="1" x="5" y="18" fill="#FEE4E6"></rect>
  <rect width="1" height="1" x="6" y="18" fill="#FFE3E7"></rect>
  <rect width="1" height="1" x="7" y="18"></rect>
  <rect width="1" height="1" x="8" y="18"></rect>
  <rect width="1" height="1" x="9" y="18" fill="#FFF"></rect>
  <rect width="1" height="1" x="10" y="18"></rect>
  <rect width="1" height="1" x="11" y="18" fill="#FFE3E7"></rect>
  <rect width="1" height="1" x="12" y="18" fill="#FFE3E7"></rect>
  <rect width="1" height="1" x="13" y="18" fill="#FFE3E7"></rect>
  <rect width="1" height="1" x="14" y="18" fill="#FFE3E7"></rect>
  <rect width="1" height="1" x="15" y="18" fill="#FFE3E7"></rect>
  <rect width="1" height="1" x="16" y="18" fill="#FFE3E7"></rect>
  <rect width="1" height="1" x="17" y="18" fill="#FFE3E7"></rect>
  <rect width="1" height="1" x="18" y="18"></rect>
  <rect width="1" height="1" x="19" y="18"></rect>
  <rect width="1" height="1" x="20" y="18" fill="#FFF"></rect>
  <rect width="1" height="1" x="21" y="18"></rect>
  <rect width="1" height="1" x="22" y="18" fill="#FFE3E7"></rect>
  <rect width="1" height="1" x="23" y="18" fill="#FFE3E7"></rect>
  <rect width="1" height="1" x="24" y="18" fill="#FFE3E7"></rect>
  <rect width="1" height="1" x="25" y="18" fill="#FFE3E6"></rect>
  <rect width="1" height="1" x="26" y="18" fill="#FFE2E6"></rect>
  <rect width="1" height="1" x="27" y="18" fill="#FFF"></rect>
  <rect width="1" height="1" x="28" y="18"></rect>
  <rect width="1" height="1" y="19"></rect>
  <rect width="1" height="1" x="1" y="19" fill="#FFE2E6"></rect>
  <rect width="1" height="1" x="2" y="19" fill="#FED6DB"></rect>
  <rect width="1" height="1" x="3" y="19" fill="#FFDFE6"></rect>
  <rect width="1" height="1" x="4" y="19" fill="#FFE3E7"></rect>
  <rect width="1" height="1" x="5" y="19" fill="#FFE3E7"></rect>
  <rect width="1" height="1" x="6" y="19" fill="#FFE3E7"></rect>
  <rect width="1" height="1" x="7" y="19"></rect>
  <rect width="1" height="1" x="8" y="19"></rect>
  <rect width="1" height="1" x="9" y="19" fill="#FFF"></rect>
  <rect width="1" height="1" x="10" y="19"></rect>
  <rect width="1" height="1" x="11" y="19" fill="#FFE3E7"></rect>
  <rect width="1" height="1" x="12" y="19" fill="#FFE3E7"></rect>
  <rect width="1" height="1" x="13" y="19" fill="#FFE3E7"></rect>
  <rect width="1" height="1" x="14" y="19" fill="#FFE3E7"></rect>
  <rect width="1" height="1" x="15" y="19" fill="#FFE3E7"></rect>
  <rect width="1" height="1" x="16" y="19" fill="#FFE3E7"></rect>
  <rect width="1" height="1" x="17" y="19" fill="#FFE3E7"></rect>
  <rect width="1" height="1" x="18" y="19"></rect>
  <rect width="1" height="1" x="19" y="19"></rect>
  <rect width="1" height="1" x="20" y="19" fill="#FFF"></rect>
  <rect width="1" height="1" x="21" y="19"></rect>
  <rect width="1" height="1" x="22" y="19" fill="#FFE3E7"></rect>
  <rect width="1" height="1" x="23" y="19" fill="#FFE2E5"></rect>
  <rect width="1" height="1" x="24" y="19" fill="#FEE3E5"></rect>
  <rect width="1" height="1" x="25" y="19" fill="#FEE3E5"></rect>
  <rect width="1" height="1" x="26" y="19" fill="#FFE1E4"></rect>
  <rect width="1" height="1" x="27" y="19" fill="#FFF"></rect>
  <rect width="1" height="1" x="28" y="19"></rect>
  <rect width="1" height="1" y="20"></rect>
  <rect width="1" height="1" x="1" y="20" fill="#FFE2E6"></rect>
  <rect width="1" height="1" x="2" y="20" fill="#FED6DB"></rect>
  <rect width="1" height="1" x="3" y="20" fill="#FFDFE6"></rect>
  <rect width="1" height="1" x="4" y="20" fill="#FEE4EB"></rect>
  <rect width="1" height="1" x="5" y="20" fill="#FDE3E7"></rect>
  <rect width="1" height="1" x="6" y="20" fill="#FFE3E7"></rect>
  <rect width="1" height="1" x="7" y="20"></rect>
  <rect width="1" height="1" x="8" y="20"></rect>
  <rect width="1" height="1" x="9" y="20"></rect>
  <rect width="1" height="1" x="10" y="20"></rect>
  <rect width="1" height="1" x="11" y="20" fill="#FFE3E7"></rect>
  <rect width="1" height="1" x="12" y="20" fill="#FFE3E7"></rect>
  <rect width="1" height="1" x="13" y="20" fill="#FFE3E7"></rect>
  <rect width="1" height="1" x="14" y="20" fill="#FFE3E7"></rect>
  <rect width="1" height="1" x="15" y="20" fill="#FFE3E7"></rect>
  <rect width="1" height="1" x="16" y="20" fill="#FFE3E7"></rect>
  <rect width="1" height="1" x="17" y="20" fill="#FFE3E7"></rect>
  <rect width="1" height="1" x="18" y="20"></rect>
  <rect width="1" height="1" x="19" y="20"></rect>
  <rect width="1" height="1" x="20" y="20"></rect>
  <rect width="1" height="1" x="21" y="20"></rect>
  <rect width="1" height="1" x="22" y="20" fill="#FFE3E7"></rect>
  <rect width="1" height="1" x="23" y="20" fill="#FCE3E6"></rect>
  <rect width="1" height="1" x="24" y="20" fill="#FDE2E6"></rect>
  <rect width="1" height="1" x="25" y="20" fill="#FEE1E5"></rect>
  <rect width="1" height="1" x="26" y="20" fill="#FFE1E2"></rect>
  <rect width="1" height="1" x="27" y="20" fill="#FFF"></rect>
  <rect width="1" height="1" x="28" y="20"></rect>
  <rect width="1" height="1" y="21"></rect>
  <rect width="1" height="1" x="1" y="21" fill="#FFE2E6"></rect>
  <rect width="1" height="1" x="2" y="21" fill="#FFE2E6"></rect>
  <rect width="1" height="1" x="3" y="21" fill="#FFDCE3"></rect>
  <rect width="1" height="1" x="4" y="21" fill="#FDE1E8"></rect>
  <rect width="1" height="1" x="5" y="21" fill="#FCE2E7"></rect>
  <rect width="1" height="1" x="6" y="21" fill="#FFE3E7"></rect>
  <rect width="1" height="1" x="7" y="21"></rect>
  <rect width="1" height="1" x="8" y="21"></rect>
  <rect width="1" height="1" x="9" y="21"></rect>
  <rect width="1" height="1" x="10" y="21"></rect>
  <rect width="1" height="1" x="11" y="21" fill="#FFE3E7"></rect>
  <rect width="1" height="1" x="12" y="21" fill="#FFE2E7"></rect>
  <rect width="1" height="1" x="13" y="21" fill="#FFE2E7"></rect>
  <rect width="1" height="1" x="14" y="21" fill="#FFE2E5"></rect>
  <rect width="1" height="1" x="15" y="21" fill="#FFE1E5"></rect>
  <rect width="1" height="1" x="16" y="21" fill="#FFE2E6"></rect>
  <rect width="1" height="1" x="17" y="21" fill="#FFE3E7"></rect>
  <rect width="1" height="1" x="18" y="21"></rect>
  <rect width="1" height="1" x="19" y="21"></rect>
  <rect width="1" height="1" x="20" y="21"></rect>
  <rect width="1" height="1" x="21" y="21"></rect>
  <rect width="1" height="1" x="22" y="21" fill="#FFE3E7"></rect>
  <rect width="1" height="1" x="23" y="21" fill="#FCE3E6"></rect>
  <rect width="1" height="1" x="24" y="21" fill="#FCE3E6"></rect>
  <rect width="1" height="1" x="25" y="21" fill="#FDE1E5"></rect>
  <rect width="1" height="1" x="26" y="21" fill="#FFDEE1"></rect>
  <rect width="1" height="1" x="27" y="21" fill="#FFF"></rect>
  <rect width="1" height="1" x="28" y="21"></rect>
  <rect width="1" height="1" y="22"></rect>
  <rect width="1" height="1" x="1" y="22" fill="#FFE2E6"></rect>
  <rect width="1" height="1" x="2" y="22" fill="#FFE2E6"></rect>
  <rect width="1" height="1" x="3" y="22" fill="#FFD7DE"></rect>
  <rect width="1" height="1" x="4" y="22" fill="#FAE3E5"></rect>
  <rect width="1" height="1" x="5" y="22" fill="#FBE3E6"></rect>
  <rect width="1" height="1" x="6" y="22" fill="#FCE3E6"></rect>
  <rect width="1" height="1" x="7" y="22" fill="#FFE3E7"></rect>
  <rect width="1" height="1" x="8" y="22"></rect>
  <rect width="1" height="1" x="9" y="22"></rect>
  <rect width="1" height="1" x="10" y="22" fill="#FFE3E7"></rect>
  <rect width="1" height="1" x="11" y="22" fill="#FAE5E5"></rect>
  <rect width="1" height="1" x="12" y="22" fill="#F7E6E3"></rect>
  <rect width="1" height="1" x="13" y="22" fill="#FFDEE1"></rect>
  <rect width="1" height="1" x="14" y="22" fill="#FCE3E6"></rect>
  <rect width="1" height="1" x="15" y="22" fill="#FCE3E6"></rect>
  <rect width="1" height="1" x="16" y="22" fill="#FBE3E6"></rect>
  <rect width="1" height="1" x="17" y="22" fill="#FAE3E6"></rect>
  <rect width="1" height="1" x="18" y="22" fill="#FFE2E7"></rect>
  <rect width="1" height="1" x="19" y="22"></rect>
  <rect width="1" height="1" x="20" y="22"></rect>
  <rect width="1" height="1" x="21" y="22" fill="#FFE3E7"></rect>
  <rect width="1" height="1" x="22" y="22" fill="#FCE3E6"></rect>
  <rect width="1" height="1" x="23" y="22" fill="#FCE3E6"></rect>
  <rect width="1" height="1" x="24" y="22" fill="#FFE2E6"></rect>
  <rect width="1" height="1" x="25" y="22" fill="#FFE2E6"></rect>
  <rect width="1" height="1" x="26" y="22" fill="#FFE2E6"></rect>
  <rect width="1" height="1" x="27" y="22" fill="#FFF"></rect>
  <rect width="1" height="1" x="28" y="22"></rect>
  <rect width="1" height="1" y="23"></rect>
  <rect width="1" height="1" x="1" y="23" fill="#FFE2E6"></rect>
  <rect width="1" height="1" x="2" y="23" fill="#FFE2E6"></rect>
  <rect width="1" height="1" x="3" y="23" fill="#FFE2E6"></rect>
  <rect width="1" height="1" x="4" y="23" fill="#FFE2E6"></rect>
  <rect width="1" height="1" x="5" y="23" fill="#FFE2E6"></rect>
  <rect width="1" height="1" x="6" y="23" fill="#FFE2E6"></rect>
  <rect width="1" height="1" x="7" y="23" fill="#FFE2E6"></rect>
  <rect width="1" height="1" x="8" y="23" fill="#FFE2E7"></rect>
  <rect width="1" height="1" x="9" y="23" fill="#FFE3E7"></rect>
  <rect width="1" height="1" x="10" y="23" fill="#FFE2E7"></rect>
  <rect width="1" height="1" x="11" y="23" fill="#FFE1E6"></rect>
  <rect width="1" height="1" x="12" y="23" fill="#FFE3E7"></rect>
  <rect width="1" height="1" x="13" y="23" fill="#FFE3E7"></rect>
  <rect width="1" height="1" x="14" y="23" fill="#FFE3E7"></rect>
  <rect width="1" height="1" x="15" y="23" fill="#FFE3E7"></rect>
  <rect width="1" height="1" x="16" y="23" fill="#FFE3E7"></rect>
  <rect width="1" height="1" x="17" y="23" fill="#FDE3E6"></rect>
  <rect width="1" height="1" x="18" y="23" fill="#FFE3E7"></rect>
  <rect width="1" height="1" x="19" y="23" fill="#FEE4E7"></rect>
  <rect width="1" height="1" x="20" y="23" fill="#FEE3E7"></rect>
  <rect width="1" height="1" x="21" y="23" fill="#FFE2E7"></rect>
  <rect width="1" height="1" x="22" y="23" fill="#FFE3E7"></rect>
  <rect width="1" height="1" x="23" y="23" fill="#FDE0E6"></rect>
  <rect width="1" height="1" x="24" y="23" fill="#FFE2E6"></rect>
  <rect width="1" height="1" x="25" y="23" fill="#FFE2E6"></rect>
  <rect width="1" height="1" x="26" y="23" fill="#FFE2E6"></rect>
  <rect width="1" height="1" x="27" y="23" fill="#FFE2E6"></rect>
  <rect width="1" height="1" x="28" y="23"></rect>
  <rect width="1" height="1" y="24"></rect>
  <rect width="1" height="1" x="1" y="24" fill="#FFE2E6"></rect>
  <rect width="1" height="1" x="2" y="24" fill="#FFE2E6"></rect>
  <rect width="1" height="1" x="3" y="24" fill="#F7A9AE"></rect>
  <rect width="1" height="1" x="4" y="24" fill="#F7A9AE"></rect>
  <rect width="1" height="1" x="5" y="24" fill="#F7A9AE"></rect>
  <rect width="1" height="1" x="6" y="24" fill="#FFE2E6"></rect>
  <rect width="1" height="1" x="7" y="24" fill="#FEE1E6"></rect>
  <rect width="1" height="1" x="8" y="24" fill="#FEE3E7"></rect>
  <rect width="1" height="1" x="9" y="24" fill="#FEE2E7"></rect>
  <rect width="1" height="1" x="10" y="24" fill="#FFE1E6"></rect>
  <rect width="1" height="1" x="11" y="24" fill="#FFE0E8"></rect>
  <rect width="1" height="1" x="12" y="24" fill="#FFE3E7"></rect>
  <rect width="1" height="1" x="13" y="24" fill="#F25862"></rect>
  <rect width="1" height="1" x="14" y="24" fill="#F25862"></rect>
  <rect width="1" height="1" x="15" y="24" fill="#F25862"></rect>
  <rect width="1" height="1" x="16" y="24" fill="#FFE3E7"></rect>
  <rect width="1" height="1" x="17" y="24" fill="#FCE4EA"></rect>
  <rect width="1" height="1" x="18" y="24" fill="#FFE2E6"></rect>
  <rect width="1" height="1" x="19" y="24" fill="#FFE2E7"></rect>
  <rect width="1" height="1" x="20" y="24" fill="#FFE3E7"></rect>
  <rect width="1" height="1" x="21" y="24" fill="#FEE4E7"></rect>
  <rect width="1" height="1" x="22" y="24" fill="#FEE3E7"></rect>
  <rect width="1" height="1" x="23" y="24" fill="#F7A9AE"></rect>
  <rect width="1" height="1" x="24" y="24" fill="#F7A9AE"></rect>
  <rect width="1" height="1" x="25" y="24" fill="#F7A9AE"></rect>
  <rect width="1" height="1" x="26" y="24" fill="#FFE2E6"></rect>
  <rect width="1" height="1" x="27" y="24" fill="#FFE2E6"></rect>
  <rect width="1" height="1" x="28" y="24"></rect>
  <rect width="1" height="1" y="25"></rect>
  <rect width="1" height="1" x="1" y="25" fill="#FFE2E6"></rect>
  <rect width="1" height="1" x="2" y="25" fill="#FFE2E6"></rect>
  <rect width="1" height="1" x="3" y="25" fill="#EF7E85"></rect>
  <rect width="1" height="1" x="4" y="25" fill="#EF7E85"></rect>
  <rect width="1" height="1" x="5" y="25" fill="#EF7E85"></rect>
  <rect width="1" height="1" x="6" y="25" fill="#FFE2E6"></rect>
  <rect width="1" height="1" x="7" y="25" fill="#FFE2E6"></rect>
  <rect width="1" height="1" x="8" y="25" fill="#FED8DB"></rect>
  <rect width="1" height="1" x="9" y="25" fill="#FFE3E7"></rect>
  <rect width="1" height="1" x="10" y="25" fill="#FFE3E7"></rect>
  <rect width="1" height="1" x="11" y="25" fill="#FFE3E7"></rect>
  <rect width="1" height="1" x="12" y="25" fill="#FFE3E7"></rect>
  <rect width="1" height="1" x="13" y="25" fill="#F7A9AE"></rect>
  <rect width="1" height="1" x="14" y="25" fill="#F25862"></rect>
  <rect width="1" height="1" x="15" y="25" fill="#F7A9AE"></rect>
  <rect width="1" height="1" x="16" y="25" fill="#FCE4EA"></rect>
  <rect width="1" height="1" x="17" y="25" fill="#FCE4E9"></rect>
  <rect width="1" height="1" x="18" y="25" fill="#FEE2E6"></rect>
  <rect width="1" height="1" x="19" y="25" fill="#FFE3E7"></rect>
  <rect width="1" height="1" x="20" y="25" fill="#FFE3E7"></rect>
  <rect width="1" height="1" x="21" y="25" fill="#FEE3E6"></rect>
  <rect width="1" height="1" x="22" y="25" fill="#FEE1E6"></rect>
  <rect width="1" height="1" x="23" y="25" fill="#EF7E85"></rect>
  <rect width="1" height="1" x="24" y="25" fill="#EF7E85"></rect>
  <rect width="1" height="1" x="25" y="25" fill="#EF7E85"></rect>
  <rect width="1" height="1" x="26" y="25" fill="#FFE2E6"></rect>
  <rect width="1" height="1" x="27" y="25" fill="#FFE2E6"></rect>
  <rect width="1" height="1" x="28" y="25"></rect>
  <rect width="1" height="1" y="26"></rect>
  <rect width="1" height="1" x="1" y="26" fill="#FFE2E6"></rect>
  <rect width="1" height="1" x="2" y="26" fill="#FFE2E6"></rect>
  <rect width="1" height="1" x="3" y="26" fill="#FFE2E6"></rect>
  <rect width="1" height="1" x="4" y="26" fill="#FFE2E6"></rect>
  <rect width="1" height="1" x="5" y="26" fill="#FFE2E6"></rect>
  <rect width="1" height="1" x="6" y="26" fill="#FFE2E6"></rect>
  <rect width="1" height="1" x="7" y="26" fill="#FFE2E6"></rect>
  <rect width="1" height="1" x="8" y="26" fill="#FED8DB"></rect>
  <rect width="1" height="1" x="9" y="26" fill="#F25862"></rect>
  <rect width="1" height="1" x="10" y="26" fill="#FFE3E7"></rect>
  <rect width="1" height="1" x="11" y="26" fill="#FFE3E7"></rect>
  <rect width="1" height="1" x="12" y="26" fill="#FFE3E7"></rect>
  <rect width="1" height="1" x="13" y="26" fill="#FFE3E7"></rect>
  <rect width="1" height="1" x="14" y="26" fill="#F25862"></rect>
  <rect width="1" height="1" x="15" y="26" fill="#FFE3E7"></rect>
  <rect width="1" height="1" x="16" y="26" fill="#FFE3E7"></rect>
  <rect width="1" height="1" x="17" y="26" fill="#FFE3E7"></rect>
  <rect width="1" height="1" x="18" y="26" fill="#FFE3E7"></rect>
  <rect width="1" height="1" x="19" y="26" fill="#F25862"></rect>
  <rect width="1" height="1" x="20" y="26" fill="#FFE3E7"></rect>
  <rect width="1" height="1" x="21" y="26" fill="#FEE1E5"></rect>
  <rect width="1" height="1" x="22" y="26" fill="#FFDEE3"></rect>
  <rect width="1" height="1" x="23" y="26" fill="#FEDAE0"></rect>
  <rect width="1" height="1" x="24" y="26" fill="#FFE2E6"></rect>
  <rect width="1" height="1" x="25" y="26" fill="#FFE2E6"></rect>
  <rect width="1" height="1" x="26" y="26" fill="#FFE2E6"></rect>
  <rect width="1" height="1" x="27" y="26" fill="#FFE2E6"></rect>
  <rect width="1" height="1" x="28" y="26"></rect>
  <rect width="1" height="1" y="27"></rect>
  <rect width="1" height="1" x="1" y="27" fill="#ED9AA0"></rect>
  <rect width="1" height="1" x="2" y="27" fill="#FFE2E6"></rect>
  <rect width="1" height="1" x="3" y="27" fill="#FFE2E6"></rect>
  <rect width="1" height="1" x="4" y="27" fill="#FFE2E6"></rect>
  <rect width="1" height="1" x="5" y="27" fill="#FFE2E6"></rect>
  <rect width="1" height="1" x="6" y="27" fill="#FFE2E6"></rect>
  <rect width="1" height="1" x="7" y="27" fill="#FFE2E6"></rect>
  <rect width="1" height="1" x="8" y="27" fill="#FCDEE3"></rect>
  <rect width="1" height="1" x="9" y="27" fill="#F7A9AE"></rect>
  <rect width="1" height="1" x="10" y="27" fill="#F25862"></rect>
  <rect width="1" height="1" x="11" y="27" fill="#F25862"></rect>
  <rect width="1" height="1" x="12" y="27" fill="#F25862"></rect>
  <rect width="1" height="1" x="13" y="27" fill="#F25862"></rect>
  <rect width="1" height="1" x="14" y="27" fill="#F7A9AE"></rect>
  <rect width="1" height="1" x="15" y="27" fill="#F25862"></rect>
  <rect width="1" height="1" x="16" y="27" fill="#F25862"></rect>
  <rect width="1" height="1" x="17" y="27" fill="#F25862"></rect>
  <rect width="1" height="1" x="18" y="27" fill="#F25862"></rect>
  <rect width="1" height="1" x="19" y="27" fill="#F7A9AE"></rect>
  <rect width="1" height="1" x="20" y="27" fill="#FFE3E7"></rect>
  <rect width="1" height="1" x="21" y="27" fill="#FDDEE3"></rect>
  <rect width="1" height="1" x="22" y="27" fill="#FFDAE1"></rect>
  <rect width="1" height="1" x="23" y="27" fill="#FFD2DA"></rect>
  <rect width="1" height="1" x="24" y="27" fill="#FFE2E6"></rect>
  <rect width="1" height="1" x="25" y="27" fill="#FFE2E6"></rect>
  <rect width="1" height="1" x="26" y="27" fill="#FFE2E6"></rect>
  <rect width="1" height="1" x="27" y="27" fill="#ED9AA0"></rect>
  <rect width="1" height="1" x="28" y="27"></rect>
  <rect width="1" height="1" x="1" y="28"></rect>
  <rect width="1" height="1" x="2" y="28" fill="#ED9AA0"></rect>
  <rect width="1" height="1" x="3" y="28" fill="#FFE2E6"></rect>
  <rect width="1" height="1" x="4" y="28" fill="#FFE2E6"></rect>
  <rect width="1" height="1" x="5" y="28" fill="#FFE2E6"></rect>
  <rect width="1" height="1" x="6" y="28" fill="#FFE2E6"></rect>
  <rect width="1" height="1" x="7" y="28" fill="#FFE2E6"></rect>
  <rect width="1" height="1" x="8" y="28" fill="#FFE2E6"></rect>
  <rect width="1" height="1" x="9" y="28" fill="#FFE2E6"></rect>
  <rect width="1" height="1" x="10" y="28" fill="#FFE2E6"></rect>
  <rect width="1" height="1" x="11" y="28" fill="#FFE2E6"></rect>
  <rect width="1" height="1" x="12" y="28" fill="#FFE2E6"></rect>
  <rect width="1" height="1" x="13" y="28" fill="#FFE2E6"></rect>
  <rect width="1" height="1" x="14" y="28" fill="#FFE2E6"></rect>
  <rect width="1" height="1" x="15" y="28" fill="#FBDFE2"></rect>
  <rect width="1" height="1" x="16" y="28" fill="#FCDFE5"></rect>
  <rect width="1" height="1" x="17" y="28" fill="#FEDDE7"></rect>
  <rect width="1" height="1" x="18" y="28" fill="#FBDFE2"></rect>
  <rect width="1" height="1" x="19" y="28" fill="#FFE2E6"></rect>
  <rect width="1" height="1" x="20" y="28" fill="#FFE2E6"></rect>
  <rect width="1" height="1" x="21" y="28" fill="#FFE2E6"></rect>
  <rect width="1" height="1" x="22" y="28" fill="#FFE2E6"></rect>
  <rect width="1" height="1" x="23" y="28" fill="#FFE2E6"></rect>
  <rect width="1" height="1" x="24" y="28" fill="#FFE2E6"></rect>
  <rect width="1" height="1" x="25" y="28" fill="#FFE2E6"></rect>
  <rect width="1" height="1" x="26" y="28" fill="#ED9AA0"></rect>
  <rect width="1" height="1" x="27" y="28"></rect>
  <rect width="1" height="1" x="2" y="29"></rect>
  <rect width="1" height="1" x="3" y="29" fill="#ED9AA0"></rect>
  <rect width="1" height="1" x="4" y="29" fill="#ED9AA0"></rect>
  <rect width="1" height="1" x="5" y="29" fill="#ED9AA0"></rect>
  <rect width="1" height="1" x="6" y="29" fill="#FFE2E6"></rect>
  <rect width="1" height="1" x="7" y="29" fill="#FFE2E6"></rect>
  <rect width="1" height="1" x="8" y="29" fill="#FFE2E6"></rect>
  <rect width="1" height="1" x="9" y="29" fill="#FFE2E6"></rect>
  <rect width="1" height="1" x="10" y="29" fill="#FFE2E6"></rect>
  <rect width="1" height="1" x="11" y="29" fill="#FFE2E6"></rect>
  <rect width="1" height="1" x="12" y="29" fill="#FFE2E6"></rect>
  <rect width="1" height="1" x="13" y="29" fill="#FFE2E6"></rect>
  <rect width="1" height="1" x="14" y="29" fill="#FFE2E6"></rect>
  <rect width="1" height="1" x="15" y="29" fill="#FFE2E6"></rect>
  <rect width="1" height="1" x="16" y="29" fill="#FFE2E6"></rect>
  <rect width="1" height="1" x="17" y="29" fill="#FFE2E6"></rect>
  <rect width="1" height="1" x="18" y="29" fill="#FFE2E6"></rect>
  <rect width="1" height="1" x="19" y="29" fill="#FFE2E6"></rect>
  <rect width="1" height="1" x="20" y="29" fill="#FFE2E6"></rect>
  <rect width="1" height="1" x="21" y="29" fill="#FFE2E6"></rect>
  <rect width="1" height="1" x="22" y="29" fill="#FFE2E6"></rect>
  <rect width="1" height="1" x="23" y="29" fill="#ED9AA0"></rect>
  <rect width="1" height="1" x="24" y="29" fill="#ED9AA0"></rect>
  <rect width="1" height="1" x="25" y="29" fill="#ED9AA0"></rect>
  <rect width="1" height="1" x="26" y="29"></rect>
  <rect width="1" height="1" x="3" y="30"></rect>
  <rect width="1" height="1" x="4" y="30"></rect>
  <rect width="1" height="1" x="5" y="30"></rect>
  <rect width="1" height="1" x="6" y="30" fill="#ED9AA0"></rect>
  <rect width="1" height="1" x="7" y="30" fill="#ED9AA0"></rect>
  <rect width="1" height="1" x="8" y="30" fill="#ED9AA0"></rect>
  <rect width="1" height="1" x="9" y="30" fill="#ED9AA0"></rect>
  <rect width="1" height="1" x="10" y="30" fill="#ED9AA0"></rect>
  <rect width="1" height="1" x="11" y="30" fill="#ED9AA0"></rect>
  <rect width="1" height="1" x="12" y="30" fill="#ED9AA0"></rect>
  <rect width="1" height="1" x="13" y="30" fill="#ED9AA0"></rect>
  <rect width="1" height="1" x="14" y="30" fill="#ED9AA0"></rect>
  <rect width="1" height="1" x="15" y="30" fill="#ED9AA0"></rect>
  <rect width="1" height="1" x="16" y="30" fill="#ED9AA0"></rect>
  <rect width="1" height="1" x="17" y="30" fill="#ED9AA0"></rect>
  <rect width="1" height="1" x="18" y="30" fill="#ED9AA0"></rect>
  <rect width="1" height="1" x="19" y="30" fill="#ED9AA0"></rect>
  <rect width="1" height="1" x="20" y="30" fill="#ED9AA0"></rect>
  <rect width="1" height="1" x="21" y="30" fill="#ED9AA0"></rect>
  <rect width="1" height="1" x="22" y="30" fill="#ED9AA0"></rect>
  <rect width="1" height="1" x="23" y="30"></rect>
  <rect width="1" height="1" x="24" y="30"></rect>
  <rect width="1" height="1" x="25" y="30"></rect>
  <rect width="1" height="1" x="6" y="31"></rect>
  <rect width="1" height="1" x="7" y="31"></rect>
  <rect width="1" height="1" x="8" y="31"></rect>
  <rect width="1" height="1" x="9" y="31"></rect>
  <rect width="1" height="1" x="10" y="31"></rect>
  <rect width="1" height="1" x="11" y="31"></rect>
  <rect width="1" height="1" x="12" y="31"></rect>
  <rect width="1" height="1" x="13" y="31"></rect>
  <rect width="1" height="1" x="14" y="31"></rect>
  <rect width="1" height="1" x="15" y="31"></rect>
  <rect width="1" height="1" x="16" y="31"></rect>
  <rect width="1" height="1" x="17" y="31"></rect>
  <rect width="1" height="1" x="18" y="31"></rect>
  <rect width="1" height="1" x="19" y="31"></rect>
  <rect width="1" height="1" x="20" y="31"></rect>
  <rect width="1" height="1" x="21" y="31"></rect>
  <rect width="1" height="1" x="22" y="31"></rect>
</svg>
